<?xml version="1.0" standalone="no"?>
<!DOCTYPE svg PUBLIC "-//W3C//DTD SVG 1.1//EN" "http://www.w3.org/Graphics/SVG/1.1/DTD/svg11.dtd" >
<svg xmlns="http://www.w3.org/2000/svg" xmlns:xlink="http://www.w3.org/1999/xlink" version="1.1">
<metadata></metadata>
<defs>
<font id="newjunethinregular" horiz-adv-x="1167" >
<font-face units-per-em="2048" ascent="1597" descent="-451" />
<missing-glyph horiz-adv-x="514" />
<glyph horiz-adv-x="0" />
<glyph unicode="&#xd;" horiz-adv-x="682" />
<glyph unicode=" "  horiz-adv-x="514" />
<glyph unicode="&#x09;" horiz-adv-x="514" />
<glyph unicode="&#xa0;" horiz-adv-x="514" />
<glyph unicode="!" horiz-adv-x="413" d="M184 33q0 43 37 43q39 0 39 -43t-39 -43q-37 0 -37 43zM205 469v1055h33v-1047z" />
<glyph unicode="&#x22;" horiz-adv-x="737" d="M174 1563h43l-8 -340h-29zM526 1563h43l-8 -340h-29z" />
<glyph unicode="#" horiz-adv-x="1402" d="M88 483l4 31h297l94 483h-313l6 31h313l93 496h32l-94 -496h496l92 496h29l-93 -496h299l-4 -31h-299l-86 -483h310l-7 -31h-309l-88 -483h-31l89 483h-504l-92 -483h-31l92 483h-295zM420 514h504l88 483h-498z" />
<glyph unicode="$" d="M113 94l8 29l82 -27q260 -84 401 -84q195 0 313.5 91.5t118.5 267.5q0 266 -301 336l-297 69q-317 74 -317 367q0 188 132 285.5t325 99.5v248h30v-248q131 -4 363 -80l78 -27l-7 -30l-79 26q-90 31 -133.5 43.5t-113 24.5t-134.5 12q-182 0 -306 -90t-124 -264 q0 -264 297 -334l296 -70q322 -76 322 -368q0 -193 -128 -289t-331 -98v-248h-30v248q-154 4 -383 84z" />
<glyph unicode="%" horiz-adv-x="1855" d="M102 1161q0 182 96.5 285.5t262.5 103.5q170 0 268 -103.5t98 -285.5q0 -180 -97 -283.5t-265 -103.5t-265.5 103.5t-97.5 283.5zM135 1161q0 -168 87 -262t243 -94q158 0 245 92t87 264q0 170 -89.5 264.5t-246.5 94.5q-152 0 -239 -95.5t-87 -263.5zM297 0l1212 1524 h41l-1210 -1524h-43zM1028 365q0 182 96.5 285.5t261.5 103.5q170 0 268.5 -103.5t98.5 -285.5q0 -180 -97 -284t-265 -104t-265.5 103.5t-97.5 284.5zM1061 364.5q0 -167.5 87 -262t243 -94.5q158 0 244.5 92.5t86.5 264.5q0 170 -89 264t-247 94q-152 0 -238.5 -95.5 t-86.5 -263z" />
<glyph unicode="&#x26;" horiz-adv-x="1392" d="M135 358q0 305 369 424q-117 123 -175.5 217.5t-58.5 200.5q0 162 104.5 255t284.5 93q174 0 274.5 -92t100.5 -246q0 -164 -110.5 -260t-362.5 -182l514 -559q178 209 178 528v172h33v-174q0 -336 -188 -547l170 -188h-43l-150 164q-207 -188 -497 -189q-211 0 -327 109 t-116 274zM168 358q0 -154 105.5 -254t304.5 -100q125 0 252 48t223 134l-529 574q-201 -66 -278.5 -166t-77.5 -236zM305 1200q0 -100 56.5 -191t181.5 -218q248 84 353 175t105 244q0 139 -91 222.5t-251 83.5q-170 0 -262 -83t-92 -233z" />
<glyph unicode="'" horiz-adv-x="409" d="M188 1563h43l-8 -340h-28z" />
<glyph unicode="(" horiz-adv-x="550" d="M109 686q0 229 30.5 395t85 257.5t113.5 134.5t131 51v-33q-328 -41 -328 -805t328 -805v-33q-72 8 -131 51.5t-113.5 134.5t-85 257t-30.5 395z" />
<glyph unicode=")" horiz-adv-x="550" d="M82 -119q328 41 328 805t-328 805v33q72 -8 131 -51t113.5 -134.5t85 -257.5t30.5 -395t-30.5 -395t-85 -257t-113.5 -134.5t-131 -51.5v33z" />
<glyph unicode="*" d="M166 1237l12 37l393 -139l-8 428h39l-8 -428l397 139l10 -39l-399 -123l252 -346l-35 -27l-237 361l-238 -361l-33 27l250 346z" />
<glyph unicode="+" d="M123 594v31h444v481h33v-481h449v-31h-449v-494h-33v494h-444z" />
<glyph unicode="," horiz-adv-x="413" d="M154 -160l88 320h39l-93 -330q-6 -23 -20 -23q-24 0 -14 33z" />
<glyph unicode="-" horiz-adv-x="821" d="M156 655v33h514v-33h-514z" />
<glyph unicode="." horiz-adv-x="413" d="M184 33q0 43 37 43q39 0 39 -43t-39 -43q-37 0 -37 43z" />
<glyph unicode="/" horiz-adv-x="815" d="M86 0l637 1524h31l-631 -1524h-37z" />
<glyph unicode="0" d="M141 461v596q0 225 115 354t330 129q213 0 326.5 -129t113.5 -354v-596q0 -225 -113.5 -354.5t-326.5 -129.5q-215 0 -330 129.5t-115 354.5zM174 461q0 -215 103.5 -334t308.5 -119q201 0 304 120t103 333v596q0 213 -103.5 332.5t-303.5 119.5q-205 0 -308.5 -118.5 t-103.5 -333.5v-596z" />
<glyph unicode="1" d="M160 0v33h487v1456h-176q-109 0 -203 -33l-8 37q88 31 209 31h178q20 0 27.5 -7.5t7.5 -27.5v-1456h403v-33h-925z" />
<glyph unicode="2" d="M129 25q0 16 10 26l596 598q141 143 200.5 249t59.5 237q0 188 -108.5 277t-280.5 89q-141 0 -373 -71l-83 -27l-7 31l82 26q215 72 381 72q182 0 302 -97.5t120 -299.5q0 -139 -61.5 -250t-208.5 -258l-596 -596h870v-31h-878q-25 0 -25 25z" />
<glyph unicode="3" d="M129 76l6 30l109 -32q199 -61 362 -62q188 0 305 88t117 269q0 136 -104 247l-136 136h-274v30h274l105 142q96 129 96 243q0 160 -103.5 247t-267.5 87q-141 0 -372 -71l-76 -23l-6 31l74 22q215 72 380 72q178 0 291 -92t113 -273q0 -127 -94 -252l-111 -145l131 -135 q113 -123 113 -266q0 -193 -127 -290t-328 -97q-176 0 -370 61z" />
<glyph unicode="4" d="M94 354q0 6 10 27l752 1130q14 20 31 21q27 0 26 -31v-1141h179v-30h-179v-330h-32v330h-762q-25 0 -25 24zM129 360h752v1127z" />
<glyph unicode="5" d="M123 74l6 30l100 -28q199 -61 353 -62q219 0 331.5 129t112.5 336q0 438 -428 439q-113 0 -334 -66l-61 -18v690h788v-31h-758v-621q227 76 365 76q221 0 341 -115.5t120 -353.5q0 -225 -129 -360t-348 -135q-166 0 -361 61z" />
<glyph unicode="6" d="M150 492v575q0 227 116.5 346t325.5 119q133 0 356 -66l76 -22l-6 -31l-78 23q-223 66 -348 65q-193 0 -302.5 -110.5t-109.5 -323.5v-231q258 106 418 106q236 0 354.5 -125t118.5 -342q0 -215 -120 -351t-333 -136q-217 0 -342.5 139.5t-125.5 364.5zM180 492 q0 -217 116 -346.5t325 -129.5q197 0 307 127t110 332q0 201 -108.5 317.5t-331.5 116.5q-166 0 -418 -104v-313z" />
<glyph unicode="7" d="M160 1493v31h897q25 0 24 -23q0 -14 -6 -28l-604 -1473h-35l615 1493h-891z" />
<glyph unicode="8" d="M117 369q0 143 112 266l131 135l-110 145q-94 125 -94 252q0 178 119.5 271.5t308 93.5t309.5 -93t121 -272q0 -127 -94 -252l-111 -145l131 -135q113 -123 113 -266q0 -195 -129 -291t-340 -96q-209 0 -338 97t-129 290zM150 369q0 -180 118.5 -268.5t315.5 -88.5 q199 0 317.5 88t118.5 269q-1 136 -105 247l-135 136h-391l-135 -136q-104 -111 -104 -247zM188 1167q0 -115 97 -243l104 -142h391l105 142q96 129 96 243q0 160 -111.5 247t-285.5 87t-285 -87t-111 -247z" />
<glyph unicode="9" d="M119 1044q0 215 119.5 351.5t332.5 136.5q217 0 343 -139.5t126 -364.5v-575q0 -227 -116.5 -346t-325.5 -119q-133 0 -356 65l-76 23l6 30l78 -22q223 -66 348 -66q193 0 302.5 111t109.5 324v231q-258 -106 -418 -106q-236 0 -354.5 124.5t-118.5 341.5zM152 1044 q0 -201 108.5 -317.5t331.5 -116.5q166 1 418 105v313q0 217 -116 346t-325 129q-197 0 -307 -127t-110 -332z" />
<glyph unicode=":" horiz-adv-x="413" d="M184 33q0 43 37 43q39 0 39 -43t-39 -43q-37 0 -37 43zM184 1057q0 43 37 43q39 0 39 -43t-39 -43q-37 0 -37 43z" />
<glyph unicode=";" horiz-adv-x="413" d="M154 -160l88 320h39l-93 -330q-6 -23 -20 -23q-24 0 -14 33zM215 1057q0 43 37 43q39 0 39 -43t-39 -43q-37 0 -37 43z" />
<glyph unicode="&#x3c;" d="M115 604q0 14 16 25l930 415v-32l-911 -408l911 -397v-33l-932 408q-14 8 -14 22z" />
<glyph unicode="=" d="M133 412v30h907v-30h-907zM133 780v31h907v-31h-907z" />
<glyph unicode="&#x3e;" d="M111 174v33l911 397l-911 408v32l929 -415q16 -10 16 -24.5t-14 -22.5z" />
<glyph unicode="?" horiz-adv-x="907" d="M94 1464l45 13q201 53 332 53q160 0 255 -86t95 -236q0 -109 -33.5 -176t-117.5 -158l-215 -227v-180l-33 -6v168q0 25 20 49l207 215q78 80 110 146.5t32 168.5q0 129 -82 209t-240 80q-133 0 -324 -51l-45 -12zM405.5 33q0.5 43 36.5 43q39 0 39 -43t-39 -43 q-37 0 -36.5 43z" />
<glyph unicode="@" horiz-adv-x="1853" d="M170 735q0 367 224 598.5t569 231.5q315 0 519 -195.5t204 -515.5q0 -231 -103.5 -366.5t-251.5 -135.5q-39 0 -101.5 22.5t-101.5 22.5q-31 0 -131 -17.5t-151 -17.5q-143 0 -219 90.5t-76 235.5q0 184 104.5 310t288.5 126q127 0 266 -30l13 86h30l-96 -754 q10 -2 71.5 -21.5t104.5 -19.5q135 0 227.5 125t92.5 344q0 305 -193.5 491.5t-496.5 186.5q-332 0 -546 -222.5t-214 -574.5q0 -317 175 -521t480 -204q129 0 276.5 44t206.5 44q55 0 105 -30l63 -39l-12 -25l-55 31q-53 29 -101 28q-57 0 -202.5 -43t-280.5 -43 q-319 0 -503.5 214.5t-184.5 543.5zM584 688q0 -133 66.5 -215t195.5 -82q61 0 278 39l82 633q-123 33 -262 33q-172 0 -266 -117t-94 -291z" />
<glyph unicode="A" horiz-adv-x="1386" d="M82 0l590 1513q8 20 26 21q23 0 29 -21l578 -1513h-35l-152 397h-848l-153 -397h-35zM283 428h823l-408 1071z" />
<glyph unicode="B" horiz-adv-x="1353" d="M195 33v1458q0 33 34 33h557q180 0 277.5 -93.5t97.5 -244.5q0 -131 -90 -260l-110 -156l139 -147q121 -131 121 -269q0 -160 -114 -257t-304 -97h-574q-35 0 -34 33zM227 31h576q176 0 280.5 89t104.5 232q0 137 -113 252l-143 148h-705v-721zM227 782h705l104 152 q90 129 90 252q0 139 -88 223t-252 84h-559v-711z" />
<glyph unicode="C" horiz-adv-x="1306" d="M133 758q0 379 174 576.5t455 197.5q166 0 381 -72l82 -26l-6 -31l-84 27q-228 71 -369 71h-4q-272 0 -434 -188.5t-162 -555t161.5 -555t434.5 -188.5q141 0 373 72l84 27l6 -31l-82 -27q-212 -71 -376 -71h-5q-281 0 -455 197.5t-174 576.5z" />
<glyph unicode="D" horiz-adv-x="1464" d="M195 33v1458q0 33 34 33h437q313 0 489 -203t176 -563q0 -356 -179 -557t-472 -201h-451q-35 0 -34 33zM227 31h453q283 0 450.5 191.5t167.5 535.5q0 346 -166.5 540.5t-465.5 194.5h-439v-1462z" />
<glyph unicode="E" horiz-adv-x="1210" d="M195 33v1458q0 33 34 33h858v-31h-860v-696h758v-31h-758v-735h860v-31h-858q-35 0 -34 33z" />
<glyph unicode="F" horiz-adv-x="1138" d="M195 0v1491q0 33 34 33h838v-31h-840v-727h772v-31h-772v-735h-32z" />
<glyph unicode="G" horiz-adv-x="1439" d="M133 758q0 379 179.5 576.5t469.5 197.5q150 0 408 -76l82 -24l-6 -31l-84 24q-258 76 -400 76q-281 0 -448.5 -188.5t-167.5 -555t171 -556t458 -189.5q210 0 450 76v547h-387v31h387q31 0 31 -35v-535q0 -31 -25 -37q-245 -75 -451 -75h-5q-301 0 -481.5 196.5 t-180.5 577.5z" />
<glyph unicode="H" horiz-adv-x="1445" d="M195 0v1524h32v-733h994v733h30v-1524h-30v760h-994v-760h-32z" />
<glyph unicode="I" horiz-adv-x="421" d="M195 0v1524h32v-1524h-32z" />
<glyph unicode="J" horiz-adv-x="737" d="M72 16l6 33q89 -26 164 -26h6q264 0 264 303v1198h31v-1200q0 -332 -295 -332q-35 0 -79 6t-71 12z" />
<glyph unicode="K" horiz-adv-x="1290" d="M195 0v1524h32v-1082l879 1082h43l-416 -510l475 -1014h-32l-467 983l-451 -553q-31 -35 -31 -78v-352h-32z" />
<glyph unicode="L" horiz-adv-x="1112" d="M195 33v1491h32v-1493h803v-31h-801q-35 0 -34 33z" />
<glyph unicode="M" horiz-adv-x="1724" d="M195 0v1499q0 33 30 33q23 0 35 -29l596 -1466l610 1466q8 29 35 29q29 0 29 -33v-1499h-33v1493l-616 -1477q-6 -18 -27 -18q-18 0 -27 18l-600 1477v-1493h-32z" />
<glyph unicode="N" horiz-adv-x="1497" d="M195 0v1501q0 31 26 31q23 0 31 -21l1018 -1474v1487h33v-1501q0 -33 -27 -33q-17 0 -31 20l-1018 1477v-1487h-32z" />
<glyph unicode="O" horiz-adv-x="1572" d="M133 758q0 367 176 570.5t477 203.5t477.5 -204t176.5 -570q0 -369 -175 -571.5t-478.5 -202.5t-478.5 202.5t-175 571.5zM166 758q0 -352 167 -548t453.5 -196t453.5 196t167 548t-165 547.5t-455.5 195.5t-455.5 -195.5t-165 -547.5z" />
<glyph unicode="P" horiz-adv-x="1241" d="M195 0v1491q0 33 34 33h500q186 0 303 -119t117 -322q0 -201 -123 -318.5t-313 -117.5h-486v-647h-32zM227 678h486q178 0 290.5 108.5t112.5 296.5q0 186 -107.5 298t-281.5 112h-500v-815z" />
<glyph unicode="Q" horiz-adv-x="1572" d="M133 757.5q0 366.5 176 570.5t477 204q299 0 476.5 -204t177.5 -570q0 -336 -135.5 -518.5t-356.5 -229.5l166 -59q166 -59 268 -60h35v-26h-35q-121 0 -297 67.5t-284 67.5q-307 0 -487.5 195.5t-180.5 562zM166 758q0 -352 171 -541.5t464 -189.5q291 0 448.5 186 t157.5 545q0 352 -166 547.5t-456.5 195.5t-454.5 -195.5t-164 -547.5z" />
<glyph unicode="R" horiz-adv-x="1300" d="M195 0v1491q0 33 34 33h533q193 0 296 -104.5t103 -278.5q0 -154 -121 -301l-131 -164l310 -676h-37l-305 668h-650v-668h-32zM227 698h662l121 154q116 149 116 287q0 162 -92 258t-272 96h-535v-795z" />
<glyph unicode="S" horiz-adv-x="1271" d="M143 94l9 29l84 -27q266 -82 456 -82q172 0 289 91.5t117 265.5q0 268 -312 338l-307 69q-327 76 -327 367q0 192 124.5 290.5t305.5 98.5q197 0 446 -82l82 -27l-6 -30l-84 26q-250 80 -438 80q-170 0 -284 -90t-114 -264q0 -266 305 -336l308 -70q331 -76 331 -368 q0 -190 -127 -289.5t-309 -99.5q-205 0 -465 84z" />
<glyph unicode="T" horiz-adv-x="1218" d="M82 1493v31h1055v-31h-512v-1493h-33v1493h-510z" />
<glyph unicode="U" horiz-adv-x="1460" d="M184 524v1000h35v-1000q0 -246 131 -383t381 -137q256 0 383 134t127 386v1000h35v-1000q0 -260 -141.5 -406.5t-403.5 -146.5q-264 0 -405.5 146.5t-141.5 406.5z" />
<glyph unicode="V" horiz-adv-x="1353" d="M82 1524h35l559 -1499l561 1499h35l-570 -1514q-8 -20 -26 -20q-23 0 -29 20z" />
<glyph unicode="W" horiz-adv-x="1871" d="M92 1524h35l291 -1499l493 1480q6 18 24.5 18.5t25.5 -18.5l483 -1480l301 1499h35l-307 -1510q-4 -25 -29 -24q-23 0 -29 22l-479 1469l-490 -1469q-10 -23 -30 -22q-23 0 -29 24z" />
<glyph unicode="X" horiz-adv-x="1271" d="M92 0l522 772l-516 752h41l498 -731l489 731h37l-504 -752l521 -772h-41l-502 750l-504 -750h-41z" />
<glyph unicode="Y" horiz-adv-x="1300" d="M82 1524h41l528 -828l527 828h41l-551 -858v-666h-35v664z" />
<glyph unicode="Z" horiz-adv-x="1288" d="M133 25q0 16 10 26l969 1442h-952v31h960q25 0 25 -23q0 -18 -8 -28l-969 -1442h987v-31h-997q-25 0 -25 25z" />
<glyph unicode="[" horiz-adv-x="550" d="M174 -133v1657h281v-31h-248v-1595h248v-31h-281z" />
<glyph unicode="\" horiz-adv-x="815" d="M86 1524h31l637 -1524h-37z" />
<glyph unicode="]" horiz-adv-x="550" d="M96 -102h248v1595h-248v31h281v-1657h-281v31z" />
<glyph unicode="^" d="M156 102l401 981q8 14 22.5 14.5t24.5 -16.5l410 -979h-33l-401 967l-392 -967h-32z" />
<glyph unicode="_" horiz-adv-x="1024" d="M-4 -270h1032v-31h-1032v31z" />
<glyph unicode="`" horiz-adv-x="1077" d="M473 1563h51l181 -168q10 -6 10 -19q0 -14 -15 -14q-10 0 -22 10z" />
<glyph unicode="a" horiz-adv-x="1187" d="M143 272q0 305 404 306h424v194q0 164 -90 243t-248 79q-139 0 -391 -70l-37 -10l-8 33l39 10q256 69 393 69h4q170 0 269 -86t99 -268v-672l134 -80l-13 -22l-104 61q-16 11 -40 11q-12 0 -26 -2l-153 -35q-213 -47 -324 -47q-160 0 -246 75.5t-86 210.5zM176 272 q0 -256 301 -256q125 0 316 45l178 39v445h-426q-369 0 -369 -273z" />
<glyph unicode="b" horiz-adv-x="1202" d="M174 117v1452l33 6v-545q276 92 405 92q229 0 348 -147.5t119 -421.5q0 -256 -131 -408.5t-354 -152.5q-164 0 -387 80q-33 12 -33 45zM207 106q220 -81 383 -81h4q211 0 332 145t121 383q0 254 -111 394t-324 140q-135 0 -405 -90v-891z" />
<glyph unicode="c" horiz-adv-x="1054" d="M123 557q0 272 127 419.5t342 147.5q84 0 291 -53l69 -18l-6 -33l-72 20q-184 51 -282 52q-201 0 -318.5 -137.5t-117.5 -397.5t117.5 -397t318.5 -137q98 0 282 51l72 20l6 -33l-69 -18q-207 -53 -291 -53q-215 0 -342 147.5t-127 419.5z" />
<glyph unicode="d" horiz-adv-x="1202" d="M123 553q0 274 118.5 421.5t348.5 147.5q129 0 405 -92v543l33 8v-1464q0 -33 -33 -45q-223 -80 -387 -80q-223 0 -354 152.5t-131 408.5zM156 553q0 -238 120.5 -383t331.5 -145h4q163 0 383 81v891q-270 90 -405 90q-213 0 -323.5 -140t-110.5 -394z" />
<glyph unicode="e" horiz-adv-x="1179" d="M123 555q0 272 131 423.5t340 151.5q213 0 338 -147t125 -405q0 -35 -35 -35h-866q6 -256 133 -390.5t336 -134.5q117 0 317 66l86 29l8 -33l-86 -29q-188 -63 -325 -63q-223 0 -362.5 146.5t-139.5 420.5zM156 573h870q0 248 -116.5 388.5t-317.5 140.5 q-190 0 -312 -142.5t-124 -386.5z" />
<glyph unicode="f" horiz-adv-x="737" d="M82 1063v29h199v137q0 166 73.5 251t208.5 85q76 0 174 -25l-6 -31q-94 23 -168 23q-250 0 -250 -305v-135h373v-29h-373v-1063h-32v1063h-199z" />
<glyph unicode="g" horiz-adv-x="1177" d="M123 782q0 162 117.5 246t322.5 84h137q82 0 113 8l307 74l6 -27l-356 -82q10 -2 25.5 -7t54.5 -26.5t69.5 -52t55 -88t24.5 -127.5q0 -162 -117.5 -251t-322.5 -89l-201 31q51 -37 52 -125q0 -45 -23 -80t-82 -98h492q156 0 236.5 -61.5t80.5 -165.5q0 -147 -130 -232.5 t-396 -85.5q-199 0 -323 70t-124 209q0 115 111 244l27 30q35 41 46 53.5t28.5 37t21.5 42t4 37.5q0 98 -100 152q-156 86 -156 280zM154 782q0 -309 407 -309q186 0 297 75.5t111 235.5q0 299 -402 299q-199 0 -306 -75.5t-107 -225.5zM172 -94q0 -129 112.5 -190.5 t303.5 -61.5q252 0 374.5 76.5t122.5 212.5q0 92 -71.5 147t-216.5 55h-512q-113 -121 -113 -239z" />
<glyph unicode="h" horiz-adv-x="1146" d="M174 0v1571l33 6v-549q258 94 403 94q373 0 373 -391v-731h-33v731q0 358 -340 359q-145 0 -403 -93v-997h-33z" />
<glyph unicode="i" horiz-adv-x="423" d="M174 1526q0 43 37 43q39 0 39 -43t-39 -43q-37 0 -37 43zM195 0v1114h34v-1114h-34z" />
<glyph unicode="j" horiz-adv-x="485" d="M51 -340q94 0 151.5 70.5t57.5 195.5v1188h33v-1188q0 -135 -66.5 -216t-175.5 -81v31zM272 1569q39 0 39 -43t-39 -43q-37 0 -37 42q0 44 37 44z" />
<glyph unicode="k" horiz-adv-x="1075" d="M174 0v1569l33 6v-1229l700 768h43l-348 -383l412 -731h-39l-400 705l-337 -371q-31 -35 -31 -78v-256h-33z" />
<glyph unicode="l" horiz-adv-x="382" d="M174 0v1569l35 8v-1577h-35z" />
<glyph unicode="m" horiz-adv-x="1763" d="M174 0v1004q0 33 33 45q202 73 336 73h4q195 0 287 -116q244 116 416 116h3q176 0 261 -100t85 -272v-750h-32v750q0 340 -314 340q-168 0 -403 -111q51 -80 51 -229v-750h-33v750q0 340 -321 340q-139 0 -340 -74v-1016h-33z" />
<glyph unicode="n" horiz-adv-x="1157" d="M174 0v997q0 33 33 45q223 80 387 80q201 0 300 -106.5t99 -288.5v-727h-30v725q0 168 -89.5 266.5t-279.5 98.5q-168 0 -387 -80v-1010h-33z" />
<glyph unicode="o" horiz-adv-x="1220" d="M123 557q0 272 132 419.5t355.5 147.5t355.5 -147.5t132 -419.5t-132 -419.5t-355.5 -147.5t-355.5 147.5t-132 419.5zM156 557q0 -260 122.5 -397t331.5 -137t332 137t123 397t-123 397.5t-332 137.5t-331.5 -137.5t-122.5 -397.5z" />
<glyph unicode="p" horiz-adv-x="1202" d="M174 -383v1380q0 33 33 45q223 80 387 80q223 0 354 -152.5t131 -408.5q0 -274 -118.5 -421.5t-348.5 -147.5q-129 0 -405 92v-461zM207 117q270 -90 405 -90q213 0 324 140t111 394q0 238 -121 383.5t-332 145.5q-168 0 -387 -80v-893z" />
<glyph unicode="q" horiz-adv-x="1202" d="M123 561q0 256 131 408.5t354 152.5q164 0 387 -80q33 -12 33 -45v-1372l-33 -6v465q-276 -92 -405 -92q-229 0 -348 147.5t-119 421.5zM156 561q0 -254 110.5 -394t323.5 -140q135 0 405 90v893q-217 80 -387 80q-211 0 -331.5 -145.5t-120.5 -383.5z" />
<glyph unicode="r" horiz-adv-x="708" d="M174 0v997q0 33 33 45q223 80 440 80v-32q-221 0 -440 -80v-1010h-33z" />
<glyph unicode="s" horiz-adv-x="1069" d="M133 66l8 32l70 -18q231 -59 362 -60q141 0 233.5 66t92.5 190q0 102 -60.5 161t-203.5 85l-209 37q-150 27 -216.5 94.5t-66.5 180.5q0 145 101.5 218.5t257.5 73.5q150 0 364 -55l70 -18l-8 -33l-70 18q-199 55 -356 56q-141 0 -233.5 -66.5t-92.5 -191.5 q0 -102 59.5 -161t202.5 -85l209 -37q150 -29 217.5 -95.5t67.5 -178.5q0 -145 -101.5 -219t-257.5 -74q-134 0 -370 61z" />
<glyph unicode="t" horiz-adv-x="821" d="M82 1059v33h192v305l33 6v-311h404v-33h-404v-735q0 -303 242 -304q37 0 80 6.5t67 12.5l27 6l6 -31q-87 -26 -174 -26h-6q-274 0 -275 334v737h-192z" />
<glyph unicode="u" horiz-adv-x="1157" d="M164 387v727h31v-725q0 -168 89 -266t279 -98h4q168 0 383 79v1010h33v-997q0 -33 -33 -45q-223 -80 -387 -80q-201 0 -300 106.5t-99 288.5z" />
<glyph unicode="v" horiz-adv-x="1067" d="M82 1114h35l409 -1098l424 1098h35l-432 -1112q-8 -20 -27 -20q-23 0 -28 20z" />
<glyph unicode="w" horiz-adv-x="1605" d="M92 1114h37l238 -1100l415 1084q6 18 24.5 18t24.5 -18l402 -1086l246 1102h34l-251 -1112q-4 -25 -29 -25q-23 0 -29 23l-397 1073l-412 -1071q-10 -23 -30 -22q-23 0 -29 24z" />
<glyph unicode="x" horiz-adv-x="1021" d="M92 0l400 567l-386 547h41l367 -526l360 526h37l-374 -547l393 -567h-41l-375 545l-381 -545h-41z" />
<glyph unicode="y" horiz-adv-x="1064" d="M82 1114h37l450 -1139l377 1139h37l-426 -1266q-76 -221 -272 -221l-170 27l8 31q94 -27 162 -27q186 0 245 201l23 73z" />
<glyph unicode="z" horiz-adv-x="1091" d="M123 25q0 16 10 26l787 1032h-773v31h781q25 0 24 -22q0 -18 -8 -29l-786 -1032h811v-31h-822q-25 0 -24 25z" />
<glyph unicode="{" horiz-adv-x="538" d="M143 680v27q61 -2 102.5 46t41.5 111q0 76 -58.5 202t-58.5 208q0 115 66.5 182.5t173.5 67.5h34v-29h-34q-96 0 -153.5 -57.5t-57.5 -163.5q0 -76 59 -202t59 -208q0 -59 -30.5 -102t-61.5 -57l-28 -13q4 -2 12 -5t29.5 -16.5t37 -30.5t28.5 -49t13 -69q0 -82 -59 -208 t-59 -201q0 -106 57 -164t154 -58h34v-28h-34q-106 0 -173 66.5t-67 183.5q0 82 58.5 207.5t58.5 201.5q0 63 -41 111.5t-103 46.5z" />
<glyph unicode="|" horiz-adv-x="419" d="M195 -369v1932h30v-1932h-30z" />
<glyph unicode="}" horiz-adv-x="538" d="M94 -109h35q96 0 153.5 57.5t57.5 164.5q0 76 -59.5 201.5t-59.5 207.5q0 59 31 102.5t59 55.5l31 12q-4 2 -12 5t-29.5 17.5t-37 32t-29 49t-13.5 68.5q0 82 59.5 208t59.5 202q0 106 -57.5 163.5t-153.5 57.5h-35v29h35q104 0 172 -67.5t68 -182.5q0 -82 -58.5 -208 t-58.5 -202q0 -63 41 -111t102 -46v-27q-61 2 -102 -46t-41 -112q0 -76 58.5 -201.5t58.5 -207.5q0 -117 -68 -183.5t-172 -66.5h-35v28z" />
<glyph unicode="~" d="M129 571q92 197 250 197q80 0 160 -63l133 -103q70 -57 141 -57q149 0 221 176l27 -19q-82 -190 -248 -190q-86 0 -158 57l-137 105q-76 59 -139 59q-139 0 -225 -180z" />
<glyph unicode="&#xa1;" horiz-adv-x="413" d="M180 1110q0 43 39 43q37 0 37 -43t-37 -43q-39 0 -39 43zM203 -381v1047l33 8v-1055h-33z" />
<glyph unicode="&#xa2;" d="M160 557q0 268 124 415.5t332 151.5v254h31v-254q66 -2 273 -53l69 -18l-6 -33l-72 20q-184 51 -282 52q-201 0 -318.5 -137.5t-117.5 -397.5t117.5 -397t318.5 -137q98 0 282 51l72 20l6 -33l-69 -18q-182 -49 -273 -53v-262h-31v262q-209 4 -332.5 150.5t-123.5 416.5z " />
<glyph unicode="&#xa3;" d="M70 14q0 16 16 17q201 0 289 104.5t88 265.5q0 102 -60 222h-258v28h244q-16 33 -83.5 145.5t-96.5 192.5t-29 172q0 166 108.5 271.5t305.5 105.5q131 0 379 -72l61 -18l-8 -33l-59 19q-238 74 -373 73q-186 0 -283.5 -98t-97.5 -248q0 -86 27.5 -160.5t95 -191.5 t88.5 -158h418v-28h-402q57 -119 58 -222q0 -70 -16.5 -134t-75 -135t-150.5 -103h549q123 0 191.5 56.5t76.5 160.5h33q-10 -113 -87 -179.5t-214 -66.5h-719q-16 0 -16 14z" />
<glyph unicode="&#xa5;" d="M100 1524h37l453 -733l438 733h37l-438 -731h428v-31h-451v-244h451v-31h-451v-487h-35v487h-458v31h458v244h-458v31h440z" />
<glyph unicode="&#xa6;" horiz-adv-x="430" d="M195 -371v772h30v-772h-30zM195 791v772h30v-772h-30z" />
<glyph unicode="&#xa7;" d="M127 668v401q0 215 112.5 342t327.5 127q131 0 379 -72l62 -18l-9 -33l-59 19q-238 74 -373 73q-205 0 -306 -116.5t-101 -321.5v-205q276 94 415 94q463 0 463 -469v-401q0 -215 -112.5 -342t-327.5 -127q-131 0 -379 72l-61 18l8 33l59 -18q238 -74 373 -74 q205 0 306.5 116.5t101.5 321.5v205q-276 -94 -416 -94q-463 0 -463 469zM160 668q0 -209 96 -324t334 -115q144 1 416 99v161q0 209 -96.5 324t-334.5 115q-143 0 -415 -99v-161z" />
<glyph unicode="&#xa8;" horiz-adv-x="1136" d="M321.5 1526q0.5 43 36.5 43q39 0 39 -43t-39 -43q-37 0 -36.5 43zM776 1526q0 43 37 43q39 0 39 -43t-39 -43q-37 0 -37 43z" />
<glyph unicode="&#xa9;" horiz-adv-x="1853" d="M125 758q0 346 234.5 569t566.5 223q336 0 569.5 -221t233.5 -571q0 -348 -233.5 -578.5t-569.5 -230.5q-330 0 -565.5 231.5t-235.5 577.5zM158 758q0 -334 224.5 -555t543.5 -221q326 0 548 219t222 557t-222.5 550t-547.5 212q-319 0 -543.5 -214t-224.5 -548z M565 753.5q0 198.5 101.5 306t267.5 107.5q76 0 223 -41l43 -12l-6 -29l-43 13q-127 37 -215 37q-152 0 -245 -98.5t-93 -283t93 -282.5t245 -98q88 0 215 37l43 12l6 -29l-43 -12q-147 -41 -223 -41q-166 0 -267.5 107.5t-101.5 306z" />
<glyph unicode="&#xaa;" d="M240 913q0 223 301 224h305v137q0 242 -234 242q-121 0 -284 -43l-41 -11l-6 25l38 10q180 47 293 47q119 0 190.5 -64.5t71.5 -205.5v-506l93 -49l-13 -23l-82 43q-14 6 -32 4l-156 -28q-152 -27 -203 -27q-117 0 -179 58.5t-62 166.5zM270 913q0 -197 211 -196 q66 0 201 24l164 31v334h-303q-272 0 -273 -193z" />
<glyph unicode="&#xab;" horiz-adv-x="1097" d="M123 573q0 12 10 23l356 354h46l-379 -377l391 -372h-45l-369 348q-10 14 -10 24zM551 573q0 12 10 23l357 354h45l-381 -377l393 -372h-45l-369 348q-10 14 -10 24z" />
<glyph unicode="&#xac;" d="M137 776v33h905v-455h-30v422h-875z" />
<glyph unicode="&#xad;" horiz-adv-x="821" d="M156 655v33h514v-33h-514z" />
<glyph unicode="&#xae;" horiz-adv-x="1853" d="M125 758q0 346 234.5 569t566.5 223q336 0 569.5 -221t233.5 -571q0 -348 -233.5 -578.5t-569.5 -230.5q-330 0 -565.5 231.5t-235.5 577.5zM158 758q0 -334 224.5 -555t543.5 -221q326 0 548 219t222 557t-222.5 550t-547.5 212q-319 0 -543.5 -214t-224.5 -548z M672 348v776q0 37 37 37h307q100 0 164.5 -55t64.5 -156q0 -76 -53 -153l-82 -113l162 -336h-39l-154 328h-374v-328h-33zM705 705h382l74 102q51 72 51 143q0 84 -54 131t-144 47h-309v-423z" />
<glyph unicode="&#xaf;" horiz-adv-x="1054" d="M252 1434v32h582v-32h-582z" />
<glyph unicode="&#xb0;" d="M262 1184q0 166 95.5 273.5t254.5 107.5q156 0 248 -107.5t92 -273.5q0 -168 -93 -276.5t-251 -108.5q-160 0 -253 108.5t-93 276.5zM295 1184q0 -154 84 -253.5t229.5 -99.5t229.5 98.5t84 254.5q0 154 -83 251t-227 97q-147 0 -232 -98.5t-85 -249.5z" />
<glyph unicode="&#xb1;" d="M131 0v31h907v-31h-907zM131 670v30h434v406h33v-406h440v-30h-440v-402h-33v402h-434z" />
<glyph unicode="&#xb2;" d="M129 25q0 16 10 26l596 598q141 143 200.5 249t59.5 237q0 188 -108.5 277t-280.5 89q-141 0 -373 -71l-83 -27l-7 31l82 26q215 72 381 72q182 0 302 -97.5t120 -299.5q0 -139 -61.5 -250t-208.5 -258l-596 -596h870v-31h-878q-25 0 -25 25z" />
<glyph unicode="&#xb3;" d="M129 76l6 30l109 -32q199 -61 362 -62q188 0 305 88t117 269q0 136 -104 247l-136 136h-274v30h274l105 142q96 129 96 243q0 160 -103.5 247t-267.5 87q-141 0 -372 -71l-76 -23l-6 31l74 22q215 72 380 72q178 0 291 -92t113 -273q0 -127 -94 -252l-111 -145l131 -135 q113 -123 113 -266q0 -193 -127 -290t-328 -97q-176 0 -370 61z" />
<glyph unicode="&#xb4;" horiz-adv-x="1077" d="M473 1376q0 12 10 19l181 168h51l-205 -191q-12 -10 -23 -10q-14 0 -14 14z" />
<glyph unicode="&#xb5;" d="M182 -381v1495h31v-725q0 -168 88 -264t281 -96q180 -1 387 75v1010h32v-997q0 -33 -32 -45q-211 -76 -387 -76q-293 0 -369 221v-598h-31z" />
<glyph unicode="&#xb6;" horiz-adv-x="1232" d="M113 995q0 231 119.5 380t347.5 149h522v-1905h-33v1872h-410v-1872h-34v852q-248 0 -380 147.5t-132 376.5z" />
<glyph unicode="&#xb7;" horiz-adv-x="743" d="M350 752q0 43 37 43q39 0 39 -43t-39 -43q-37 0 -37 43z" />
<glyph unicode="&#xb8;" horiz-adv-x="1054" d="M381 -373l8 29q63 -20 127 -21q158 0 158 105q0 55 -44 80.5t-149 25.5l-6 11l80 143h31l-72 -129q193 0 193 -131q0 -63 -51.5 -99t-139.5 -36z" />
<glyph unicode="&#xb9;" d="M160 0v33h487v1456h-176q-109 0 -203 -33l-8 37q88 31 209 31h178q20 0 27.5 -7.5t7.5 -27.5v-1456h403v-33h-925z" />
<glyph unicode="&#xba;" d="M225 1116q0 199 97.5 312.5t261.5 113.5t261 -113.5t97 -312t-99 -314.5t-263 -116q-162 0 -258.5 114.5t-96.5 315.5zM258 1116q0 -188 85 -292.5t237 -104.5q154 0 241.5 105.5t87.5 291.5q0 182 -87 288.5t-238.5 106.5t-238.5 -106.5t-87 -288.5z" />
<glyph unicode="&#xbb;" horiz-adv-x="1097" d="M123 201l393 372l-381 377h45l357 -354q10 -10 10 -23q0 -10 -10 -24l-369 -348h-45zM551 201l391 372l-379 377h45l357 -354q10 -10 10 -23q0 -10 -10 -24l-369 -348h-45z" />
<glyph unicode="&#xbc;" horiz-adv-x="4190" d="M160 0v33h487v1456h-176q-109 0 -203 -33l-8 37q88 31 209 31h178q20 0 27.5 -7.5t7.5 -27.5v-1456h403v-33h-925zM1464 0l1212 1524h41l-1210 -1524h-43zM3117 354q0 6 10 27l752 1130q14 20 31 21q27 0 26 -31v-1141h179v-30h-179v-330h-32v330h-762q-25 0 -25 24z M3152 360h752v1127z" />
<glyph unicode="&#xbd;" horiz-adv-x="4190" d="M160 0v33h487v1456h-176q-109 0 -203 -33l-8 37q88 31 209 31h178q20 0 27.5 -7.5t7.5 -27.5v-1456h403v-33h-925zM1464 0l1212 1524h41l-1210 -1524h-43zM3152 25q0 16 10 26l596 598q141 143 200.5 249t59.5 237q0 188 -108.5 277t-280.5 89q-141 0 -373 -71l-83 -27 l-7 31l82 26q215 72 381 72q182 0 302 -97.5t120 -299.5q0 -139 -61.5 -250t-208.5 -258l-596 -596h870v-31h-878q-25 0 -25 25z" />
<glyph unicode="&#xbe;" horiz-adv-x="4190" d="M129 76l6 30l109 -32q199 -61 362 -62q188 0 305 88t117 269q0 136 -104 247l-136 136h-274v30h274l105 142q96 129 96 243q0 160 -103.5 247t-267.5 87q-141 0 -372 -71l-76 -23l-6 31l74 22q215 72 380 72q178 0 291 -92t113 -273q0 -127 -94 -252l-111 -145l131 -135 q113 -123 113 -266q0 -193 -127 -290t-328 -97q-176 0 -370 61zM1464 0l1212 1524h41l-1210 -1524h-43zM3117 354q0 6 10 27l752 1130q14 20 31 21q27 0 26 -31v-1141h179v-30h-179v-330h-32v330h-762q-25 0 -25 24zM3152 360h752v1127z" />
<glyph unicode="&#xbf;" horiz-adv-x="907" d="M102 -66q0 109 34 176.5t118 157.5l215 228v180l33 6v-168q0 -25 -21 -49l-207 -215q-78 -80 -109.5 -146.5t-31.5 -169.5q0 -129 82 -208.5t240 -79.5q133 0 323 51l45 12l6 -31l-45 -12q-201 -53 -331 -53q-160 0 -255.5 86t-95.5 235zM442 1110q0 43 39 43 q37 0 37 -43t-37 -43q-39 0 -39 43z" />
<glyph unicode="&#xc0;" horiz-adv-x="1386" d="M82 0l590 1513q8 20 26 21q23 0 29 -21l578 -1513h-35l-152 397h-848l-153 -397h-35zM283 428h823l-408 1071zM539 1915h51l180 -168q10 -6 10 -18q0 -14 -14 -15q-11 0 -23 10z" />
<glyph unicode="&#xc1;" horiz-adv-x="1386" d="M82 0l590 1513q8 20 26 21q23 0 29 -21l578 -1513h-35l-152 397h-848l-153 -397h-35zM283 428h823l-408 1071zM594 1729q0 12 10 18l180 168h52l-205 -191q-12 -10 -23 -10q-14 0 -14 15z" />
<glyph unicode="&#xc2;" horiz-adv-x="1386" d="M82 0l590 1513q8 20 26 21q23 0 29 -21l578 -1513h-35l-152 397h-848l-153 -397h-35zM283 428h823l-408 1071zM434 1706l230 231q8 12 24 13q12 0 25 -13l229 -231h-47l-207 211l-207 -211h-47z" />
<glyph unicode="&#xc3;" horiz-adv-x="1386" d="M82 0l590 1513q8 20 26 21q23 0 29 -21l578 -1513h-35l-152 397h-848l-153 -397h-35zM283 428h823l-408 1071zM328 1747q66 156 202 156q72 0 134 -45l100 -74q70 -49 125 -49q115 0 176 137l27 -14q-66 -156 -203 -156q-72 0 -133 45l-101 74q-70 49 -125 49 q-115 0 -176 -137z" />
<glyph unicode="&#xc4;" horiz-adv-x="1386" d="M82 0l590 1513q8 20 26 21q23 0 29 -21l578 -1513h-35l-152 397h-848l-153 -397h-35zM283 428h823l-408 1071zM422 1841q0 43 37 43q39 0 39 -43t-39 -43q-37 0 -37 43zM876.5 1841q0.5 43 36.5 43q39 0 39 -43t-39 -43q-37 0 -36.5 43z" />
<glyph unicode="&#xc5;" horiz-adv-x="1386" d="M82 0l588 1493q-63 10 -105.5 57t-42.5 117q0 80 50.5 129t126 49t127 -50t51.5 -128q0 -70 -42 -117t-106 -57l576 -1493h-35l-152 397h-848l-153 -397h-35zM283 428h823l-408 1057zM555 1667.5q0 -65.5 39 -106.5t104.5 -41t106.5 41t41 106.5t-41 105t-107 39.5 q-68 0 -105.5 -39.5t-37.5 -105z" />
<glyph unicode="&#xc6;" horiz-adv-x="2076" d="M82 0l596 1495q12 29 39 29h1237v-31h-862v-696h759v-31h-759v-735h862v-31h-858q-35 0 -35 33v358h-791l-153 -391h-35zM283 420h778v1073h-350z" />
<glyph unicode="&#xc7;" horiz-adv-x="1306" d="M133 758q0 379 174 576.5t455 197.5q166 0 381 -72l82 -26l-6 -31l-84 27q-231 72 -373 71q-272 0 -434 -188.5t-162 -555t161.5 -555t434.5 -188.5q141 0 373 72l84 27l6 -31l-82 -27q-215 -72 -381 -71q-281 0 -455 197.5t-174 576.5zM573 -373l9 29q63 -20 127 -21 q158 0 157 105q0 55 -44 80.5t-148 25.5l-6 11l80 143h30l-71 -129q193 0 192 -131q0 -63 -51 -99t-139 -36z" />
<glyph unicode="&#xc8;" horiz-adv-x="1210" d="M195 33v1458q0 33 34 33h858v-31h-860v-696h758v-31h-758v-735h860v-31h-858q-35 0 -34 33zM471 1915h51l180 -168q10 -6 11 -18q0 -14 -15 -15q-10 0 -22 10z" />
<glyph unicode="&#xc9;" horiz-adv-x="1210" d="M195 33v1458q0 33 34 33h858v-31h-860v-696h758v-31h-758v-735h860v-31h-858q-35 0 -34 33zM555 1729q0 12 10 18l180 168h52l-205 -191q-12 -10 -23 -10q-14 0 -14 15z" />
<glyph unicode="&#xca;" horiz-adv-x="1210" d="M195 33v1458q0 33 34 33h858v-31h-860v-696h758v-31h-758v-735h860v-31h-858q-35 0 -34 33zM377 1706l229 231q8 12 25 13q12 0 24 -13l230 -231h-47l-207 211l-207 -211h-47z" />
<glyph unicode="&#xcb;" horiz-adv-x="1210" d="M195 33v1458q0 33 34 33h858v-31h-860v-696h758v-31h-758v-735h860v-31h-858q-35 0 -34 33zM362 1839q0 43 37 43q39 0 39 -43t-39 -43q-37 0 -37 43zM817 1839q0 43 37 43q39 0 39 -43t-39 -43q-37 0 -37 43z" />
<glyph unicode="&#xcc;" horiz-adv-x="421" d="M57 1913h52l180 -168q10 -6 10 -19q0 -14 -14 -14q-11 0 -23 10zM195 0v1524h32v-1524h-32z" />
<glyph unicode="&#xcd;" horiz-adv-x="421" d="M133 1726q0 12 10 19l181 168h51l-205 -191q-12 -10 -23 -10q-14 0 -14 14zM195 0v1524h32v-1524h-32z" />
<glyph unicode="&#xce;" horiz-adv-x="421" d="M-43 1706l229 231q10 12 25 13q12 0 25 -13l229 -231h-47l-207 211l-207 -211h-47zM195 0v1524h32v-1524h-32z" />
<glyph unicode="&#xcf;" horiz-adv-x="421" d="M-51 1841q0 43 37 43q39 0 39 -43t-39 -43q-37 0 -37 43zM195 0v1524h32v-1524h-32zM403 1841q0 43 37 43q39 0 39 -43t-39 -43q-37 0 -37 43z" />
<glyph unicode="&#xd0;" horiz-adv-x="1464" d="M63 768v31h142v692q0 33 35 33h436q313 0 489 -203t176 -563q0 -356 -179 -557t-472 -201h-450q-35 0 -35 33v735h-142zM238 31h452q283 0 451 191.5t168 535.5q0 346 -167 540.5t-466 194.5h-438v-694h505v-31h-505v-737z" />
<glyph unicode="&#xd1;" horiz-adv-x="1497" d="M195 0v1501q0 31 26 31q23 0 31 -21l1018 -1474v1487h33v-1501q0 -33 -27 -33q-17 0 -31 20l-1018 1477v-1487h-32zM379 1749q66 156 203 156q72 0 133 -45l100 -74q70 -49 125 -49q115 0 176 137l27 -14q-66 -156 -203 -156q-72 0 -133 45l-100 74q-70 49 -125 49 q-115 0 -176 -137z" />
<glyph unicode="&#xd2;" horiz-adv-x="1572" d="M133 758q0 367 176 570.5t477 203.5t477.5 -204t176.5 -570q0 -369 -175 -571.5t-478.5 -202.5t-478.5 202.5t-175 571.5zM166 758q0 -352 167 -548t453.5 -196t453.5 196t167 548t-165 547.5t-455.5 195.5t-455.5 -195.5t-165 -547.5zM627 1913h51l180 -168 q10 -6 10 -19q0 -14 -14 -14q-11 0 -23 10z" />
<glyph unicode="&#xd3;" horiz-adv-x="1572" d="M133 758q0 367 176 570.5t477 203.5t477.5 -204t176.5 -570q0 -369 -175 -571.5t-478.5 -202.5t-478.5 202.5t-175 571.5zM166 758q0 -352 167 -548t453.5 -196t453.5 196t167 548t-165 547.5t-455.5 195.5t-455.5 -195.5t-165 -547.5zM700 1726q0 12 11 19l180 168h51 l-205 -191q-12 -10 -22 -10q-14 0 -15 14z" />
<glyph unicode="&#xd4;" horiz-adv-x="1572" d="M133 758q0 367 176 570.5t477 203.5t477.5 -204t176.5 -570q0 -369 -175 -571.5t-478.5 -202.5t-478.5 202.5t-175 571.5zM166 758q0 -352 167 -548t453.5 -196t453.5 196t167 548t-165 547.5t-455.5 195.5t-455.5 -195.5t-165 -547.5zM530 1706l230 231q10 12 24 13 q12 0 25 -13l229 -231h-47l-207 211l-206 -211h-48z" />
<glyph unicode="&#xd5;" horiz-adv-x="1572" d="M133 758q0 367 176 570.5t477 203.5t477.5 -204t176.5 -570q0 -369 -175 -571.5t-478.5 -202.5t-478.5 202.5t-175 571.5zM166 758q0 -352 167 -548t453.5 -196t453.5 196t167 548t-165 547.5t-455.5 195.5t-455.5 -195.5t-165 -547.5zM406 1753q66 156 202 156 q72 0 133 -45l101 -74q70 -49 125 -49q115 0 176 137l26 -14q-66 -156 -202 -156q-72 0 -133 45l-101 74q-70 49 -125 49q-115 0 -176 -137z" />
<glyph unicode="&#xd6;" horiz-adv-x="1572" d="M133 758q0 367 176 570.5t477 203.5t477.5 -204t176.5 -570q0 -369 -175 -571.5t-478.5 -202.5t-478.5 202.5t-175 571.5zM166 758q0 -352 167 -548t453.5 -196t453.5 196t167 548t-165 547.5t-455.5 195.5t-455.5 -195.5t-165 -547.5zM520 1839q0 43 37 43q39 0 39 -43 t-39 -43q-37 0 -37 43zM975 1839q0 43 37 43q39 0 39 -43t-39 -43q-37 0 -37 43z" />
<glyph unicode="&#xd7;" d="M217 262l348 350l-348 351l23 22l348 -350l348 350l22 -22l-348 -351l348 -350l-22 -22l-348 350l-348 -350z" />
<glyph unicode="&#xd8;" horiz-adv-x="1572" d="M133 758q0 367 176 570.5t477 203.5q213 0 365 -102l106 194h35l-116 -213q264 -203 264 -653q0 -369 -175 -571.5t-479 -202.5q-199 0 -348 90l-100 -183h-35l111 201q-281 193 -281 666zM166 758q0 -449 262 -639l707 1282q-143 100 -349 100q-291 0 -455.5 -195.5 t-164.5 -547.5zM455 102q141 -88 331 -88q287 0 454 196t167 548q0 433 -248 626z" />
<glyph unicode="&#xd9;" horiz-adv-x="1460" d="M184 524v1000h35v-1000q0 -246 131 -383t381 -137q256 0 383 134t127 386v1000h35v-1000q0 -260 -141.5 -406.5t-403.5 -146.5q-264 0 -405.5 146.5t-141.5 406.5zM569 1915h52l180 -168q10 -6 10 -18q0 -14 -14 -15q-11 0 -23 10z" />
<glyph unicode="&#xda;" horiz-adv-x="1460" d="M184 524v1000h35v-1000q0 -246 131 -383t381 -137q256 0 383 134t127 386v1000h35v-1000q0 -260 -141.5 -406.5t-403.5 -146.5q-264 0 -405.5 146.5t-141.5 406.5zM649 1729q0 12 10 18l181 168h51l-205 -191q-12 -10 -22 -10q-14 0 -15 15z" />
<glyph unicode="&#xdb;" horiz-adv-x="1460" d="M184 524v1000h35v-1000q0 -246 131 -383t381 -137q256 0 383 134t127 386v1000h35v-1000q0 -260 -141.5 -406.5t-403.5 -146.5q-264 0 -405.5 146.5t-141.5 406.5zM473 1706l229 231q10 12 25 13q12 0 25 -13l229 -231h-47l-207 211l-207 -211h-47z" />
<glyph unicode="&#xdc;" horiz-adv-x="1460" d="M184 524v1000h35v-1000q0 -246 131 -383t381 -137q256 0 383 134t127 386v1000h35v-1000q0 -260 -141.5 -406.5t-403.5 -146.5q-264 0 -405.5 146.5t-141.5 406.5zM463 1839q0 43 37 43q39 0 39 -43t-39 -43q-37 0 -37 43zM917.5 1839q0.5 43 36.5 43q39 0 39 -43 t-39 -43q-37 0 -36.5 43z" />
<glyph unicode="&#xdd;" horiz-adv-x="1300" d="M82 1524h41l528 -828l527 828h41l-551 -858v-666h-35v664zM608 1729q0 12 10 18l181 168h51l-205 -191q-12 -10 -22 -10q-14 0 -15 15z" />
<glyph unicode="&#xde;" horiz-adv-x="1241" d="M195 0v1524h32v-283h502q186 0 303 -118.5t117 -321.5q0 -201 -123 -318.5t-313 -117.5h-486v-365h-32zM227 395h486q178 0 290.5 108.5t112.5 297.5q0 186 -107.5 297.5t-281.5 111.5h-500v-815z" />
<glyph unicode="&#xdf;" horiz-adv-x="1146" d="M174 0v1178q0 197 97.5 296t269.5 99q166 0 270 -92t104 -258q0 -131 -77 -232l-148 -196l197 -158q147 -121 147 -281q0 -156 -108.5 -256t-282.5 -100h-111v29h109q164 0 262 92t98 235q0 145 -133 254l-196 160q-12 8 -13 25q0 12 9 20l145 193q70 94 70 213 q0 145 -91.5 233t-251 88t-246.5 -91t-87 -273v-1178h-33z" />
<glyph unicode="&#xe0;" horiz-adv-x="1187" d="M143 272q0 305 404 306h424v194q0 164 -90 243t-248 79q-139 0 -391 -70l-37 -10l-8 33l39 10q260 70 397 69q170 0 269 -86t99 -268v-672l134 -80l-13 -22l-104 61q-25 16 -66 9l-153 -35q-213 -47 -324 -47q-160 0 -246 75.5t-86 210.5zM176 272q0 -256 301 -256 q125 0 316 45l178 39v445h-426q-369 0 -369 -273zM444 1563h52l180 -168q10 -6 10 -19q0 -14 -14 -14q-11 0 -23 10z" />
<glyph unicode="&#xe1;" horiz-adv-x="1187" d="M143 272q0 305 404 306h424v194q0 164 -90 243t-248 79q-139 0 -391 -70l-37 -10l-8 33l39 10q260 70 397 69q170 0 269 -86t99 -268v-672l134 -80l-13 -22l-104 61q-25 16 -66 9l-153 -35q-213 -47 -324 -47q-160 0 -246 75.5t-86 210.5zM176 272q0 -256 301 -256 q125 0 316 45l178 39v445h-426q-369 0 -369 -273zM549 1376q0 12 10 19l180 168h52l-205 -191q-12 -10 -23 -10q-14 0 -14 14z" />
<glyph unicode="&#xe2;" horiz-adv-x="1187" d="M143 272q0 305 404 306h424v194q0 164 -90 243t-248 79q-139 0 -391 -70l-37 -10l-8 33l39 10q260 70 397 69q170 0 269 -86t99 -268v-672l134 -80l-13 -22l-104 61q-25 16 -66 9l-153 -35q-213 -47 -324 -47q-160 0 -246 75.5t-86 210.5zM176 272q0 -256 301 -256 q125 0 316 45l178 39v445h-426q-369 0 -369 -273zM358 1323l230 231q10 12 24 13q12 0 25 -13l229 -231h-47l-207 211l-206 -211h-48z" />
<glyph unicode="&#xe3;" horiz-adv-x="1187" d="M143 272q0 305 404 306h424v194q0 164 -90 243t-248 79q-139 0 -391 -70l-37 -10l-8 33l39 10q260 70 397 69q170 0 269 -86t99 -268v-672l134 -80l-13 -22l-104 61q-25 16 -66 9l-153 -35q-213 -47 -324 -47q-160 0 -246 75.5t-86 210.5zM176 272q0 -256 301 -256 q125 0 316 45l178 39v445h-426q-369 0 -369 -273zM231 1380q66 156 203 156q72 0 133 -45l101 -74q70 -49 125 -49q115 0 176 137l26 -14q-66 -156 -202 -156q-72 0 -134 45l-100 74q-70 49 -125 49q-115 0 -176 -137z" />
<glyph unicode="&#xe4;" horiz-adv-x="1187" d="M143 272q0 305 404 306h424v194q0 164 -90 243t-248 79q-139 0 -391 -70l-37 -10l-8 33l39 10q260 70 397 69q170 0 269 -86t99 -268v-672l134 -80l-13 -22l-104 61q-25 16 -66 9l-153 -35q-213 -47 -324 -47q-160 0 -246 75.5t-86 210.5zM176 272q0 -256 301 -256 q125 0 316 45l178 39v445h-426q-369 0 -369 -273zM352 1526q0 43 37 43q39 0 39 -43t-39 -43q-37 0 -37 43zM807 1526q0 43 37 43q39 0 39 -43t-39 -43q-37 0 -37 43z" />
<glyph unicode="&#xe5;" horiz-adv-x="1187" d="M143 272q0 305 404 306h424v194q0 164 -90 243t-248 79q-139 0 -391 -70l-37 -10l-8 33l39 10q260 70 397 69q170 0 269 -86t99 -268v-672l134 -80l-13 -22l-104 61q-25 16 -66 9l-153 -35q-213 -47 -324 -47q-160 0 -246 75.5t-86 210.5zM176 272q0 -256 301 -256 q125 0 316 45l178 39v445h-426q-369 0 -369 -273zM424 1454q0 80 50 129t126 49t127 -50t51 -128t-51 -128t-127 -50q-74 0 -125 50t-51 128zM457 1454.5q0 -65.5 40 -106.5t103 -41q66 0 107 41t41 106.5t-41 105t-107 39.5q-68 0 -105.5 -39.5t-37.5 -105z" />
<glyph unicode="&#xe6;" horiz-adv-x="1986" d="M143 272q0 305 404 306h383v194q0 156 -86 239t-232 83q-119 0 -370 -70l-37 -10l-8 33l39 10q260 70 376 69q158 0 252 -89t97 -261q43 168 162.5 261t277.5 93q213 0 338 -147t125 -405q0 -35 -35 -35h-866q6 -256 133 -390.5t336 -134.5q117 0 317 66l86 29l8 -33 l-86 -29q-188 -63 -325 -63q-180 0 -318 104q-16 12 -59 4l-256 -63q-197 -47 -324 -47q-160 0 -246 75.5t-86 210.5zM176 272q0 -256 301 -256q126 0 316 45l280 68q-141 150 -143 416h-385q-369 0 -369 -273zM963 573h870q0 248 -117 388.5t-317 140.5q-190 0 -312 -142.5 t-124 -386.5z" />
<glyph unicode="&#xe7;" horiz-adv-x="1054" d="M123 557q0 272 127 419.5t342 147.5q84 0 291 -53l69 -18l-6 -33l-72 20q-184 51 -282 52q-201 0 -318.5 -137.5t-117.5 -397.5t117.5 -397t318.5 -137q98 0 282 51l72 20l6 -33l-69 -18q-207 -53 -291 -53q-215 0 -342 147.5t-127 419.5zM391 -373l8 29q63 -20 127 -21 q158 0 158 105q0 55 -44 80.5t-148 25.5l-7 11l80 143h31l-72 -129q193 0 193 -131q0 -63 -51.5 -99t-139.5 -36z" />
<glyph unicode="&#xe8;" horiz-adv-x="1179" d="M123 555q0 272 131 423.5t340 151.5q213 0 338 -147t125 -405q0 -35 -35 -35h-866q6 -256 133 -390.5t336 -134.5q117 0 317 66l86 29l8 -33l-86 -29q-188 -63 -325 -63q-223 0 -362.5 146.5t-139.5 420.5zM156 573h870q0 248 -116.5 388.5t-317.5 140.5 q-190 0 -312 -142.5t-124 -386.5zM418 1563h51l180 -168q10 -6 10 -19q0 -14 -14 -14q-10 0 -22 10z" />
<glyph unicode="&#xe9;" horiz-adv-x="1179" d="M123 555q0 272 131 423.5t340 151.5q213 0 338 -147t125 -405q0 -35 -35 -35h-866q6 -256 133 -390.5t336 -134.5q117 0 317 66l86 29l8 -33l-86 -29q-188 -63 -325 -63q-223 0 -362.5 146.5t-139.5 420.5zM156 573h870q0 248 -116.5 388.5t-317.5 140.5 q-190 0 -312 -142.5t-124 -386.5zM545 1376q0 12 10 19l180 168h51l-204 -191q-12 -10 -23 -10q-14 0 -14 14z" />
<glyph unicode="&#xea;" horiz-adv-x="1179" d="M123 555q0 272 131 423.5t340 151.5q213 0 338 -147t125 -405q0 -35 -35 -35h-866q6 -256 133 -390.5t336 -134.5q117 0 317 66l86 29l8 -33l-86 -29q-188 -63 -325 -63q-223 0 -362.5 146.5t-139.5 420.5zM156 573h870q0 248 -116.5 388.5t-317.5 140.5 q-190 0 -312 -142.5t-124 -386.5zM330 1323l229 231q10 12 25 13q12 0 24 -13l230 -231h-47l-207 211l-207 -211h-47z" />
<glyph unicode="&#xeb;" horiz-adv-x="1179" d="M123 555q0 272 131 423.5t340 151.5q213 0 338 -147t125 -405q0 -35 -35 -35h-866q6 -256 133 -390.5t336 -134.5q117 0 317 66l86 29l8 -33l-86 -29q-188 -63 -325 -63q-223 0 -362.5 146.5t-139.5 420.5zM156 573h870q0 248 -116.5 388.5t-317.5 140.5 q-190 0 -312 -142.5t-124 -386.5zM319 1526q0 43 37 43q39 0 39 -43t-39 -43q-37 0 -37 43zM774 1526q0 43 37 43q39 0 39 -43t-39 -43q-37 0 -37 43z" />
<glyph unicode="&#xec;" horiz-adv-x="423" d="M55 1563h51l181 -168q10 -6 10 -19q0 -14 -14 -14q-11 0 -23 10zM195 0v1114h34v-1114h-34z" />
<glyph unicode="&#xed;" horiz-adv-x="423" d="M164 1376q0 12 10 19l180 168h52l-205 -191q-12 -10 -23 -10q-14 0 -14 14zM195 0v1114h34v-1114h-34z" />
<glyph unicode="&#xee;" horiz-adv-x="423" d="M-20 1323l229 231q8 12 24 13q12 0 25 -13l229 -231h-47l-207 211l-206 -211h-47zM195 0v1114h34v-1114h-34z" />
<glyph unicode="&#xef;" horiz-adv-x="423" d="M-29 1526q0 43 37 43q39 0 39 -43t-39 -43q-37 0 -37 43zM195 0v1114h34v-1114h-34zM426 1526q0 43 37 43q39 0 39 -43t-39 -43q-37 0 -37 43z" />
<glyph unicode="&#xf0;" horiz-adv-x="1218" d="M123 530q0 225 121 373t360 148q156 -1 432 -93v132q0 188 -104 309l-273 -160v33l254 149q-113 113 -288 113h-88v29h86q195 0 315 -127l158 92v-33l-138 -80q109 -131 109 -325v-584q0 -233 -120 -375.5t-347 -142.5q-229 0 -353 153.5t-124 388.5zM156 530 q0 -233 114.5 -372.5t329.5 -139.5q221 0 328.5 130.5t107.5 357.5v420q-268 92 -434 92q-227 0 -336.5 -137.5t-109.5 -350.5z" />
<glyph unicode="&#xf1;" horiz-adv-x="1157" d="M174 0v997q0 33 33 45q223 80 387 80q201 0 300 -106.5t99 -288.5v-727h-30v725q0 168 -89.5 266.5t-279.5 98.5q-168 0 -387 -80v-1010h-33zM199 1380q66 156 202 156q72 0 134 -45l100 -74q70 -49 125 -49q115 0 176 137l27 -14q-66 -156 -203 -156q-72 0 -133 45 l-101 74q-70 49 -125 49q-115 0 -176 -137z" />
<glyph unicode="&#xf2;" horiz-adv-x="1220" d="M123 557q0 272 132 419.5t355.5 147.5t355.5 -147.5t132 -419.5t-132 -419.5t-355.5 -147.5t-355.5 147.5t-132 419.5zM156 557q0 -260 122.5 -397t331.5 -137t332 137t123 397t-123 397.5t-332 137.5t-331.5 -137.5t-122.5 -397.5zM459 1563h51l180 -168q10 -6 10 -19 q0 -14 -14 -14q-10 0 -22 10z" />
<glyph unicode="&#xf3;" horiz-adv-x="1220" d="M123 557q0 272 132 419.5t355.5 147.5t355.5 -147.5t132 -419.5t-132 -419.5t-355.5 -147.5t-355.5 147.5t-132 419.5zM156 557q0 -260 122.5 -397t331.5 -137t332 137t123 397t-123 397.5t-332 137.5t-331.5 -137.5t-122.5 -397.5zM512 1376q0 12 10 19l180 168h52 l-205 -191q-12 -10 -23 -10q-14 0 -14 14z" />
<glyph unicode="&#xf4;" horiz-adv-x="1220" d="M123 557q0 272 132 419.5t355.5 147.5t355.5 -147.5t132 -419.5t-132 -419.5t-355.5 -147.5t-355.5 147.5t-132 419.5zM156 557q0 -260 122.5 -397t331.5 -137t332 137t123 397t-123 397.5t-332 137.5t-331.5 -137.5t-122.5 -397.5zM346 1323l229 231q10 12 25 13 q12 0 25 -13l229 -231h-47l-207 211l-207 -211h-47z" />
<glyph unicode="&#xf5;" horiz-adv-x="1220" d="M123 557q0 272 132 419.5t355.5 147.5t355.5 -147.5t132 -419.5t-132 -419.5t-355.5 -147.5t-355.5 147.5t-132 419.5zM156 557q0 -260 122.5 -397t331.5 -137t332 137t123 397t-123 397.5t-332 137.5t-331.5 -137.5t-122.5 -397.5zM227 1380q66 156 203 156 q72 0 133 -45l101 -74q70 -49 124 -49q116 0 177 137l26 -14q-66 -156 -203 -156q-72 0 -133 45l-100 74q-70 49 -125 49q-115 0 -176 -137z" />
<glyph unicode="&#xf6;" horiz-adv-x="1220" d="M123 557q0 272 132 419.5t355.5 147.5t355.5 -147.5t132 -419.5t-132 -419.5t-355.5 -147.5t-355.5 147.5t-132 419.5zM156 557q0 -260 122.5 -397t331.5 -137t332 137t123 397t-123 397.5t-332 137.5t-331.5 -137.5t-122.5 -397.5zM338 1526q0 43 37 43q39 0 39 -43 t-39 -43q-37 0 -37 43zM792.5 1526q0.5 43 36.5 43q39 0 39 -43t-39 -43q-37 0 -36.5 43z" />
<glyph unicode="&#xf7;" d="M123 594v31h926v-31h-926zM547 149.5q0 43.5 37 43.5q39 0 39 -43.5t-39 -43.5q-37 0 -37 43.5zM547 1057q0 43 37 43q39 0 39 -43t-39 -43q-37 0 -37 43z" />
<glyph unicode="&#xf8;" horiz-adv-x="1220" d="M123 557q0 272 132 419.5t355 147.5q154 0 271 -75l88 159h35l-99 -176q193 -147 193 -475q0 -272 -132 -419.5t-356 -147.5q-137 0 -245 59l-86 -158h-35l94 172q-215 141 -215 494zM156 557q-1 -332 198 -465l510 928q-106 72 -254 72q-209 0 -331.5 -137.5 t-122.5 -397.5zM381 76q100 -53 229 -53q209 0 332 137t123 397q0 310 -174 447z" />
<glyph unicode="&#xf9;" horiz-adv-x="1157" d="M164 387v727h31v-725q0 -168 89 -266t279 -98q170 -1 387 79v1010h33v-997q0 -33 -33 -45q-223 -80 -387 -80q-201 0 -300 106.5t-99 288.5zM391 1563h51l181 -168q10 -6 10 -19q0 -14 -15 -14q-10 0 -22 10z" />
<glyph unicode="&#xfa;" horiz-adv-x="1157" d="M164 387v727h31v-725q0 -168 89 -266t279 -98q170 -1 387 79v1010h33v-997q0 -33 -33 -45q-223 -80 -387 -80q-201 0 -300 106.5t-99 288.5zM489 1376q0 12 11 19l180 168h51l-205 -191q-12 -10 -22 -10q-14 0 -15 14z" />
<glyph unicode="&#xfb;" horiz-adv-x="1157" d="M164 387v727h31v-725q0 -168 89 -266t279 -98q170 -1 387 79v1010h33v-997q0 -33 -33 -45q-223 -80 -387 -80q-201 0 -300 106.5t-99 288.5zM299 1323l229 231q8 12 25 13q12 0 25 -13l229 -231h-47l-207 211l-207 -211h-47z" />
<glyph unicode="&#xfc;" horiz-adv-x="1157" d="M164 387v727h31v-725q0 -168 89 -266t279 -98q170 -1 387 79v1010h33v-997q0 -33 -33 -45q-223 -80 -387 -80q-201 0 -300 106.5t-99 288.5zM307 1526q0 43 37 43q39 0 39 -43t-39 -43q-37 0 -37 43zM762 1526q0 43 37 43q39 0 39 -43t-39 -43q-37 0 -37 43z" />
<glyph unicode="&#xfd;" horiz-adv-x="1064" d="M82 1114h37l450 -1139l377 1139h37l-426 -1266q-76 -221 -272 -221l-170 27l8 31q94 -27 162 -27q186 0 245 201l23 73zM485 1376q0 12 11 19l180 168h51l-205 -191q-12 -10 -22 -10q-14 0 -15 14z" />
<glyph unicode="&#xfe;" horiz-adv-x="1202" d="M174 -383v1952l33 6v-545q276 92 405 92q229 0 348 -146.5t119 -420.5t-118.5 -418.5t-348.5 -144.5q-129 0 -405 92v-459zM207 117q270 -90 405 -90q213 0 324 137t111 391t-111 393t-324 139q-135 0 -405 -90v-880z" />
<glyph unicode="&#xff;" horiz-adv-x="1064" d="M82 1114h37l450 -1139l377 1139h37l-426 -1266q-76 -221 -272 -221l-170 27l8 31q94 -27 162 -27q186 0 245 201l23 73zM266 1526q0 43 37 43q39 0 39 -43t-39 -43q-37 0 -37 43zM721 1526q0 43 37 43q39 0 39 -43t-39 -43q-37 0 -37 43z" />
<glyph unicode="&#x152;" horiz-adv-x="2226" d="M133 758q0 360 176 563t490 203h1304v-31h-860v-2v-694h758v-31h-758v-735h860v-31h-1319q-293 0 -472 200.5t-179 557.5zM166 758q0 -344 168 -535.5t450 -191.5h426v1462h-411q-299 0 -466 -194.5t-167 -540.5z" />
<glyph unicode="&#x153;" horiz-adv-x="2123" d="M123 557q0 272 132 419.5t355 147.5q188 0 313.5 -109.5t157.5 -314.5q35 207 157 318.5t300 111.5q213 0 338 -147t125 -405q0 -35 -35 -35h-866q6 -256 133 -390.5t336 -134.5q117 0 317 66l86 29l8 -33l-86 -29q-188 -63 -325 -63q-190 0 -320.5 107.5t-167.5 314.5 q-33 -205 -157.5 -312.5t-313.5 -107.5q-223 0 -355 147.5t-132 419.5zM156 557q0 -260 122.5 -397t331.5 -137t332 137t123 397t-123 397.5t-332 137.5t-331.5 -137.5t-122.5 -397.5zM1100 573h870q0 248 -116.5 388.5t-317.5 140.5q-190 0 -312 -142.5t-124 -386.5z" />
<glyph unicode="&#x178;" horiz-adv-x="1300" d="M82 1524h41l528 -828l527 828h41l-551 -858v-666h-35v664zM381 1841q0 43 37 43q39 0 39 -43t-39 -43q-37 0 -37 43zM835.5 1841q0.5 43 36.5 43q39 0 39 -43t-39 -43q-37 0 -36.5 43z" />
<glyph unicode="&#x2c6;" horiz-adv-x="1054" d="M324 1323l229 231q8 12 25 13q12 0 24 -13l229 -231h-47l-206 211l-207 -211h-47z" />
<glyph unicode="&#x2dc;" horiz-adv-x="1054" d="M170 1380q66 156 203 156q72 0 133 -45l100 -74q70 -49 125 -49q115 0 176 137l27 -14q-66 -156 -203 -156q-72 0 -133 45l-100 74q-70 49 -125 49q-115 0 -176 -137z" />
<glyph unicode="&#x2000;" horiz-adv-x="975" />
<glyph unicode="&#x2001;" horiz-adv-x="1950" />
<glyph unicode="&#x2002;" horiz-adv-x="975" />
<glyph unicode="&#x2003;" horiz-adv-x="1950" />
<glyph unicode="&#x2004;" horiz-adv-x="650" />
<glyph unicode="&#x2005;" horiz-adv-x="487" />
<glyph unicode="&#x2006;" horiz-adv-x="325" />
<glyph unicode="&#x2007;" horiz-adv-x="325" />
<glyph unicode="&#x2008;" horiz-adv-x="243" />
<glyph unicode="&#x2009;" horiz-adv-x="390" />
<glyph unicode="&#x200a;" horiz-adv-x="108" />
<glyph unicode="&#x2010;" horiz-adv-x="821" d="M156 655v33h514v-33h-514z" />
<glyph unicode="&#x2011;" horiz-adv-x="821" d="M156 655v33h514v-33h-514z" />
<glyph unicode="&#x2012;" horiz-adv-x="821" d="M156 655v33h514v-33h-514z" />
<glyph unicode="&#x2013;" d="M133 653v33h907v-33h-907z" />
<glyph unicode="&#x2014;" horiz-adv-x="1986" d="M117 657v31h1753v-31h-1753z" />
<glyph unicode="&#x2018;" horiz-adv-x="413" d="M154 1210l92 330q6 23 20 23q25 0 15 -33l-88 -320h-39z" />
<glyph unicode="&#x2019;" horiz-adv-x="413" d="M150 1243l88 320h38l-92 -330q-6 -23 -20 -23q-24 0 -14 33z" />
<glyph unicode="&#x201a;" horiz-adv-x="413" d="M154 -160l88 320h39l-93 -330q-6 -23 -20 -23q-24 0 -14 33z" />
<glyph unicode="&#x201c;" horiz-adv-x="761" d="M154 1210l92 330q6 23 20 23q25 0 15 -33l-88 -320h-39zM502 1210l92 330q6 23 20 23q25 0 15 -33l-88 -320h-39z" />
<glyph unicode="&#x201d;" horiz-adv-x="761" d="M150 1243l88 320h38l-92 -330q-6 -23 -20 -23q-24 0 -14 33zM498 1243l88 320h39l-93 -330q-6 -23 -20 -23q-24 0 -14 33z" />
<glyph unicode="&#x201e;" horiz-adv-x="761" d="M154 -160l88 320h39l-93 -330q-6 -23 -20 -23q-24 0 -14 33zM502 -160l88 320h39l-92 -330q-6 -23 -21 -23q-24 0 -14 33z" />
<glyph unicode="&#x2022;" horiz-adv-x="860" d="M246 684q0 106 53 167.5t145 61.5q94 0 148.5 -61t54.5 -168q0 -109 -54.5 -170t-148.5 -61q-92 0 -145 61t-53 170z" />
<glyph unicode="&#x2026;" horiz-adv-x="1241" d="M184 33q0 43 37 43q39 0 39 -43t-39 -43q-37 0 -37 43zM598 33q0 43 37 43q39 0 39 -43t-39 -43q-37 0 -37 43zM1012 33q0 43 37 43q39 0 39 -43t-39 -43q-37 0 -37 43z" />
<glyph unicode="&#x202f;" horiz-adv-x="390" />
<glyph unicode="&#x2039;" horiz-adv-x="669" d="M123 573q0 12 10 23l356 354h46l-381 -377l393 -372h-45l-369 348q-10 14 -10 24z" />
<glyph unicode="&#x203a;" horiz-adv-x="669" d="M123 201l393 372l-381 377h45l357 -354q10 -10 10 -23q0 -10 -10 -24l-369 -348h-45z" />
<glyph unicode="&#x205f;" horiz-adv-x="487" />
<glyph unicode="&#x20ac;" d="M76 588v30h168v287h-168v31h168q0 305 130 454.5t355 149.5q84 0 291 -53l70 -19l-7 -32l-71 20q-184 51 -283 51q-211 0 -332 -142t-121 -429h547v-31h-547v-287h547v-30h-547q0 -287 121 -429.5t332 -142.5q98 0 283 52l71 20l7 -33l-70 -18q-207 -53 -291 -53 q-225 0 -355 149.5t-130 454.5h-168z" />
<glyph unicode="&#x2122;" horiz-adv-x="1726" d="M145 1491v33h547v-33h-258v-793h-35v793h-254zM905 696v797q0 33 31 33q23 0 35 -29l274 -762l275 764q8 29 34 29q29 0 29 -33v-799h-33v793l-280 -774q-6 -18 -27 -19q-18 0 -26 19l-279 772v-791h-33z" />
<glyph unicode="&#x25fc;" horiz-adv-x="1115" d="M0 0v1115h1115v-1115h-1115z" />
<glyph unicode="&#xfb01;" horiz-adv-x="1204" d="M86 1063v29h195v137q0 166 73.5 251t208.5 85q76 0 174 -25l-6 -31q-94 23 -168 23q-250 0 -250 -305v-135h697v-1092h-35v1063h-662v-1063h-32v1063h-195zM954 1526q0 43 37 43q39 0 39 -43t-39 -43q-37 0 -37 43z" />
<glyph unicode="&#xfb02;" horiz-adv-x="1177" d="M82 1063v29h199v131q0 168 88 255t243 87q145 0 361 -39l31 12v-1538h-35v1495q-188 39 -357 39q-299 0 -299 -311v-131h373v-29h-373v-1063h-32v1063h-199z" />
<glyph unicode="&#xfb03;" horiz-adv-x="1898" d="M82 1063v29h199v137q0 166 73.5 251t208.5 85q76 0 174 -25l-6 -31q-94 23 -168 23q-250 0 -250 -305v-135h373v-29h-373v-1063h-32v1063h-199zM819 1063v29h199v137q0 166 73.5 251t208.5 85q76 0 174 -25l-6 -31q-94 23 -168 23q-250 0 -250 -305v-135h373v-29h-373 v-1063h-32v1063h-199zM1649 1526q0 43 37 43q39 0 39 -43t-39 -43q-37 0 -37 43zM1670 0v1114h34v-1114h-34z" />
<glyph unicode="&#xfb04;" horiz-adv-x="1857" d="M82 1063v29h199v137q0 166 73.5 251t208.5 85q76 0 174 -25l-6 -31q-94 23 -168 23q-250 0 -250 -305v-135h373v-29h-373v-1063h-32v1063h-199zM819 1063v29h199v137q0 166 73.5 251t208.5 85q76 0 174 -25l-6 -31q-94 23 -168 23q-250 0 -250 -305v-135h373v-29h-373 v-1063h-32v1063h-199zM1649 0v1569l35 8v-1577h-35z" />
</font>
</defs>
</svg>
