<?xml version="1.0" encoding="utf-8"?>
<!-- Generator: Adobe Illustrator 15.1.0, SVG Export Plug-In . SVG Version: 6.00 Build 0)  -->
<!DOCTYPE svg PUBLIC "-//W3C//DTD SVG 1.1//EN" "http://www.w3.org/Graphics/SVG/1.1/DTD/svg11.dtd">
<svg version="1.1" id="Isolation_Mode" xmlns="http://www.w3.org/2000/svg" xmlns:xlink="http://www.w3.org/1999/xlink" x="0px"
	 y="0px" width="700px" height="700px" viewBox="0 0 700 700" style="enable-background:new 0 0 700 700;" xml:space="preserve">
<style type="text/css">
<![CDATA[
	.st0{display:none;fill:url(#SVGID_2_);}
	.st1{display:none;fill:url(#SVGID_3_);}
	.st2{display:none;fill:url(#SVGID_4_);}
	.st3{fill:url(#SVGID_1_);}
]]>
</style>
<linearGradient id="SVGID_1_" gradientUnits="userSpaceOnUse" x1="888.334" y1="710.1553" x2="888.334" y2="15.832" gradientTransform="matrix(1.0069 0.001 0.001 1.0084 -541.5876 -16.9318)">
	<stop  offset="0" style="stop-color:#C8E8E5"/>
	<stop  offset="1" style="stop-color:#E6E7E8"/>
</linearGradient>
<path class="st3" d="M602.745,147.802C579.276,75.278,508.798,1.902,427.304,3.719C325.012,5.99,276.165,116.92,187.794,152.797
	c-68.263,27.725-167.377,53.119-156.955,138.982c7.311,26.838,57.959,197.279,114.795,275.39
	c31.851,43.502,80.96,153.31,149.248,127.916c38.331-14.512,65.269-44.003,101.774-59.685c44.691-15.552,82.96,7.782,152.673-18.063
	C763.352,524.883,653.007,303.06,602.745,147.802z M452.841,633.675c-56.59-9.198-85.64,30.854-130.573,53.347
	c-86.252,43.19-117.945-29.962-164.479-94.216C98.53,511.003,74.13,414.758,37.511,322.402
	C-5.173,214.735,106.926,182.858,185,151.239C274.882,114.86,324.273,2.658,428.2,0.042
	c82.744-2.067,153.994,72.381,177.813,145.528c51.168,157.164,157.686,392.029-54.889,475.335
	C537.775,625.975,486.51,639.149,452.841,633.675z"/>
<linearGradient id="SVGID_2_" gradientUnits="userSpaceOnUse" x1="538.6318" y1="322.5088" x2="1232.3535" y2="322.5088" gradientTransform="matrix(1.0088 -0.001 -0.001 1.0082 -542.8957 -14.9519)">
	<stop  offset="0" style="stop-color:#C8E8E5"/>
	<stop  offset="1" style="stop-color:#E6E7E8"/>
</linearGradient>
<path class="st0" d="M142.038,541.822c-66.063,9.99-162.365-22.756-138.247-101.179c23.205-75.546,80.422-140.288,118.812-208.856
	c33.27-59.44,51.384-163.508,130.584-181.557c92.964-21.172,155.413,74.674,243.205,91.077
	c78.72,14.678,172.684,5.083,197.435,97.551c21.408,79.695-16.636,166.837-56.068,235.918
	C531.289,661.11,312.088,515.819,142.038,541.822C103.963,547.575,179.959,536.021,142.038,541.822z M146.875,533.962
	c144.161-21.575,376.541,111.725,472.514-38.083c46.083-72.243,93.121-170.113,68.99-256.79
	c-24.923-90.619-117.313-81.886-194.798-96.58c-79.803-15.118-132.194-92.481-211.88-93.24
	c-97.403-0.918-104.238,111.753-150.534,170.824C60.845,309.824-109.907,572.001,146.875,533.962
	C184.152,528.384,109.396,539.513,146.875,533.962z"/>
<linearGradient id="SVGID_3_" gradientUnits="userSpaceOnUse" x1="809.6992" y1="316.3643" x2="1147.4326" y2="316.3643" gradientTransform="matrix(1.0377 0.0012 0.0012 1.0396 -581.2054 -32.8108)">
	<stop  offset="0" style="stop-color:#00ACE4"/>
	<stop  offset="1" style="stop-color:#77AD43"/>
</linearGradient>
<path class="st1" d="M332.939,480.002c14.183,5.138,32.008,3.295,50.2-5.144c8.94-4.115,29.504-19.441,38.196-29.203
	c21.178-23.764,46.255-32.524,77.548-48.922c61.008-31.944,124.102-64.997,108.571-145.838
	c-7.59-39.457-22.601-95.428-65.147-125.581c-30.163-21.402-56.881-13.541-76.775-4.318c-9.731,4.51-19.37,10.197-28.722,15.746
	c-7.376,4.351-15.026,8.894-22.591,12.727c-0.865,0.432-1.683,0.846-2.561,1.24c-17.063,7.915-37.354,9.776-57.004,11.583
	c-19.733,1.813-40.147,3.691-57.467,11.72l0,0c-10.256,4.76-18.542,11.178-25.334,19.65c-22.28,27.756-10.168,64.544,0.515,97.018
	c3.618,11.033,7.062,21.437,8.957,30.857c2.944,14.617,4.812,30.188,6.608,45.21c3.581,29.69,7.273,60.406,19.347,88.079
	C312.758,467.333,321.389,475.815,332.939,480.002z M414.118,152.581c1.08-0.481,2.146-1.012,3.23-1.545
	c8.07-4.135,16.124-8.9,23.896-13.525c9.567-5.659,19.457-11.515,29.167-16.037c27.571-12.757,48.559-11.681,70.14,3.624
	c34.802,24.571,57.486,72.664,67.4,142.923c9.029,65.362-53.943,97.842-114.855,129.229c-31.589,16.304-58.423,31.125-86.482,57.193
	c-12.257,11.382-25.666,20.395-35.865,25.13c-10.914,5.045-27.02,1.969-35.615-2.327c-32.224-16.112-39.769-87.621-47.608-134.148
	c-1.917-11.281-3.56-21.021-5.178-28.538c-2.1-9.747-5.308-19.846-8.698-30.517c-11.658-36.755-23.683-74.753,9.247-100.152
	c3.965-3.054,8.217-5.605,12.971-7.81c16.497-7.642,35.501-9.173,55.603-10.809C372.505,163.533,394.281,161.788,414.118,152.581z"
	/>
<linearGradient id="SVGID_4_" gradientUnits="userSpaceOnUse" x1="882.0947" y1="143.1714" x2="882.0947" y2="649.0337" gradientTransform="matrix(1.0153 -0.0039 -0.0039 1.0126 -550.2375 -12.9757)">
	<stop  offset="0" style="stop-color:#C8E8E5"/>
	<stop  offset="1" style="stop-color:#E6E7E8"/>
</linearGradient>
<path class="st2" d="M445.041,495.346c31.177-14.949,151.931-31.407,124.975-91.779c-28.142-65.774-86-104.938-126.575-161.604
	c-31.438-43.95-32.934-127.24-110.972-105.458c-63.322,17.682-111.715,90.639-167.752,124.913
	c-47.446,29.045-72.518,48.555-32.503,97.933c39.358,48.547,70.753,90.843,87.626,151.486
	c8.256,29.665,41.166,169.949,91.028,115.773C339.052,595.981,386.771,523.301,445.041,495.346z M312.887,629.868
	c-40.989,43.928-80.319-54.293-86.882-85.508c-15.097-74.106-49.178-126.982-96.851-185.298
	c-41.135-50.315-15.355-70.271,32.868-99.775c55.649-34.045,107.956-109.74,170.734-127.172
	c79.471-22.077,81.146,62.782,113.238,107.671c41.313,57.785,100.479,98.576,129.333,165.112
	c23.163,53.068-66.852,71.326-96.9,81.22c-75.416,24.778-119.559,79.586-157.472,133.72
	C320.416,620.608,316.171,626.354,312.887,629.868z"/>
</svg>
