<?xml version="1.0" encoding="utf-8"?>
<!-- Generator: Adobe Illustrator 15.1.0, SVG Export Plug-In . SVG Version: 6.00 Build 0)  -->
<!DOCTYPE svg PUBLIC "-//W3C//DTD SVG 1.1//EN" "http://www.w3.org/Graphics/SVG/1.1/DTD/svg11.dtd">
<svg version="1.1" id="Isolation_Mode" xmlns="http://www.w3.org/2000/svg" xmlns:xlink="http://www.w3.org/1999/xlink" x="0px"
	 y="0px" width="500px" height="500px" viewBox="0 0 500 500" style="enable-background:new 0 0 500 500;" xml:space="preserve">
<style type="text/css">
<![CDATA[
	.st0{fill:url(#SVGID_1_);}
	.st1{fill:url(#SVGID_2_);}
	.st2{fill:url(#SVGID_3_);}
	.st3{fill:url(#SVGID_4_);}
]]>
</style>
<g>
	
		<linearGradient id="SVGID_1_" gradientUnits="userSpaceOnUse" x1="522.4678" y1="-175.5742" x2="522.4678" y2="320.3716" gradientTransform="matrix(1.0069 0.001 -0.001 -1.0084 -273.6856 322.485)">
		<stop  offset="0" style="stop-color:#ADED8B"/>
		<stop  offset="1" style="stop-color:#77F0EC"/>
	</linearGradient>
	<path class="st0" d="M430.533,105.573C413.77,53.771,363.428,1.358,305.218,2.657c-73.065,1.622-107.957,80.858-171.079,106.484
		c-48.76,19.804-119.556,37.942-112.111,99.273c5.222,19.17,41.399,140.914,81.997,196.708
		c22.75,31.072,57.829,109.506,106.606,91.368c27.38-10.365,46.621-31.431,72.696-42.632c31.923-11.107,59.257,5.56,109.052-12.902
		C545.252,374.917,466.435,216.472,430.533,105.573z M323.459,452.626c-40.421-6.57-61.171,22.039-93.268,38.104
		c-61.608,30.851-84.247-21.401-117.485-67.297C70.378,365.003,52.95,296.256,26.794,230.288
		c-30.489-76.905,49.582-99.675,105.349-122.26C196.345,82.043,231.624,1.898,305.858,0.03
		c59.103-1.476,109.996,51.701,127.009,103.949c36.549,112.26,112.632,280.022-39.206,339.526
		C384.126,447.126,347.508,456.536,323.459,452.626z"/>
</g>
<linearGradient id="SVGID_2_" gradientUnits="userSpaceOnUse" x1="272.9419" y1="101.6523" x2="768.458" y2="101.6523" gradientTransform="matrix(1.0088 -0.001 0.001 -1.0082 -275.3359 323.9476)">
	<stop  offset="0" style="stop-color:#ADED8B"/>
	<stop  offset="1" style="stop-color:#77F0EC"/>
</linearGradient>
<path class="st1" d="M101.456,387.017c-47.188,7.137-115.975-16.254-98.749-72.271c16.575-53.961,57.444-100.206,84.866-149.184
	c23.764-42.458,36.704-116.792,93.275-129.684c66.403-15.123,111.01,53.338,173.718,65.055
	c56.228,10.484,123.345,3.631,141.024,69.68c15.291,56.925-11.883,119.17-40.049,168.514
	C379.493,472.223,222.92,368.443,101.456,387.017C74.259,391.126,128.542,382.874,101.456,387.017z M104.911,381.402
	c102.973-15.411,268.958,79.804,337.511-27.202c32.916-51.603,66.515-121.51,49.278-183.422
	c-17.802-64.729-83.795-58.491-139.142-68.986c-57.001-10.798-94.425-66.058-151.343-66.6
	c-69.574-0.656-74.456,79.824-107.524,122.018C43.461,221.303-78.505,408.573,104.911,381.402
	C131.538,377.418,78.141,385.367,104.911,381.402z"/>
<linearGradient id="SVGID_3_" gradientUnits="userSpaceOnUse" x1="473.9756" y1="102.8369" x2="715.2158" y2="102.8369" gradientTransform="matrix(1.0377 0.0012 -0.0012 -1.0396 -306.4354 318.521)">
	<stop  offset="0" style="stop-color:#13C4D2"/>
	<stop  offset="1" style="stop-color:#4FC133"/>
</linearGradient>
<path class="st2" d="M237.815,342.859c10.13,3.67,22.862,2.354,35.856-3.674c6.387-2.939,21.075-13.887,27.284-20.859
	c15.127-16.974,33.039-23.231,55.392-34.944c43.577-22.817,88.644-46.427,77.551-104.17c-5.421-28.184-16.143-68.164-46.534-89.701
	c-21.545-15.288-40.629-9.672-54.84-3.084c-6.951,3.222-13.836,7.284-20.515,11.247c-5.269,3.107-10.734,6.353-16.136,9.091
	c-0.618,0.308-1.202,0.604-1.829,0.885c-12.188,5.654-26.682,6.983-40.716,8.274c-14.097,1.295-28.678,2.637-41.049,8.372l0,0
	c-7.326,3.4-13.244,7.984-18.096,14.036c-15.914,19.826-7.263,46.103,0.368,69.299c2.584,7.88,5.044,15.312,6.398,22.04
	c2.103,10.441,3.437,21.563,4.72,32.294c2.558,21.208,5.195,43.147,13.819,62.914C223.398,333.811,229.564,339.869,237.815,342.859z
	 M295.799,108.986c0.771-0.344,1.534-0.723,2.309-1.104c5.764-2.954,11.517-6.357,17.068-9.661
	c6.835-4.042,13.898-8.225,20.834-11.455c19.693-9.112,34.685-8.343,50.1,2.588c24.857,17.551,41.062,51.903,48.144,102.088
	c6.449,46.687-38.531,69.887-82.04,92.307c-22.563,11.645-41.73,22.232-61.774,40.852c-8.755,8.13-18.333,14.567-25.618,17.95
	c-7.796,3.604-19.299,1.406-25.439-1.662c-23.018-11.509-28.407-62.587-34.007-95.82c-1.369-8.06-2.542-15.015-3.699-20.385
	c-1.5-6.962-3.791-14.175-6.212-21.797c-8.327-26.253-16.917-53.396,6.604-71.537c2.833-2.181,5.87-4.004,9.265-5.578
	c11.783-5.459,25.358-6.553,39.716-7.721C266.076,116.81,281.63,115.563,295.799,108.986z"/>
<g>
	
		<linearGradient id="SVGID_4_" gradientUnits="userSpaceOnUse" x1="519.7793" y1="230.2017" x2="519.7792" y2="-131.1299" gradientTransform="matrix(1.0153 -0.0039 0.0039 -1.0126 -282.3482 326.9586)">
		<stop  offset="0" style="stop-color:#ADED8B"/>
		<stop  offset="1" style="stop-color:#77F0EC"/>
	</linearGradient>
	<path class="st3" d="M317.888,353.819c22.269-10.679,108.521-22.435,89.268-65.558c-20.102-46.982-61.429-74.956-90.412-115.432
		c-22.456-31.393-23.523-90.886-79.265-75.327c-45.229,12.63-79.796,64.742-119.823,89.224
		c-33.89,20.747-51.799,34.682-23.217,69.952c28.113,34.676,50.539,64.887,62.591,108.205c5.897,21.189,29.404,121.393,65.02,82.695
		C242.181,425.702,276.267,373.787,317.888,353.819z M223.491,449.907c-29.277,31.377-57.371-38.781-62.059-61.077
		c-10.783-52.934-35.127-90.702-69.18-132.355c-29.382-35.941-10.968-50.194,23.478-71.27
		c39.75-24.318,77.111-78.386,121.954-90.837c56.765-15.769,57.96,44.845,80.885,76.908c29.51,41.275,71.771,70.412,92.381,117.938
		c16.545,37.907-47.751,50.948-69.215,58.015c-53.869,17.698-85.399,56.847-112.48,95.514
		C228.87,443.293,225.837,447.397,223.491,449.907z"/>
</g>
</svg>
