<?xml version="1.0" encoding="utf-8"?>
<!-- Generator: Adobe Illustrator 15.1.0, SVG Export Plug-In . SVG Version: 6.00 Build 0)  -->
<!DOCTYPE svg PUBLIC "-//W3C//DTD SVG 1.1//EN" "http://www.w3.org/Graphics/SVG/1.1/DTD/svg11.dtd">
<svg version="1.1" id="Layer_1" xmlns="http://www.w3.org/2000/svg" xmlns:xlink="http://www.w3.org/1999/xlink" x="0px" y="0px"
	 width="240px" height="60px" viewBox="0 0 240 60" enable-background="new 0 0 240 60" xml:space="preserve">
<path fill="#C8252C" d="M69.343,53.725v-7.115h0.911v1.025h0.027c0.538-0.789,1.266-1.184,2.185-1.184
	c1.041,0,1.882,0.395,2.524,1.184c0.434,0.539,0.651,1.318,0.651,2.342v3.748h-0.962v-3.748c0-0.735-0.14-1.301-0.417-1.69
	c-0.434-0.604-1.044-0.91-1.834-0.91c-0.737,0-1.318,0.291-1.744,0.871c-0.251,0.349-0.377,0.924-0.377,1.729v3.748H69.343z"/>
<path fill="#C8252C" d="M88.051,50.51h-6.439c0.025,0.668,0.312,1.246,0.858,1.73c0.545,0.486,1.153,0.729,1.822,0.729
	c0.537,0,1.044-0.141,1.521-0.422c0.477-0.283,0.82-0.662,1.027-1.139h1.002c-0.252,0.721-0.703,1.314-1.353,1.783
	c-0.651,0.467-1.353,0.701-2.107,0.701c-1.042,0-1.924-0.359-2.647-1.08c-0.724-0.72-1.086-1.601-1.086-2.642
	c0-1.03,0.359-1.91,1.079-2.635c0.72-0.724,1.596-1.086,2.627-1.086c1.163,0,2.117,0.461,2.862,1.379
	C87.748,48.473,88.024,49.365,88.051,50.51z M81.612,49.639h5.477c-0.122-0.633-0.442-1.168-0.963-1.604
	c-0.521-0.438-1.105-0.658-1.756-0.658c-0.677,0-1.278,0.215-1.802,0.646C82.042,48.449,81.725,48.988,81.612,49.639z"/>
<path fill="#C8252C" d="M94.985,53.725l-2.694-7.115h1.015l2.238,5.957l1.653-5.086h0.792l1.64,5.086l2.276-5.957h1.015
	l-2.705,7.115H99.11L97.587,49l-1.496,4.725H94.985z"/>
<path fill="#C8252C" d="M114.72,53.725v-9.615h0.963v9.615H114.72z"/>
<path fill="#C8252C" d="M120.965,53.725v-7.115h0.962v7.115H120.965z M121.029,45.748v-1.039h0.859v1.039H121.029z"/>
<path fill="#C8252C" d="M127.704,53.725V47.48H126.6v-0.871h1.104c-0.034-0.791,0.187-1.406,0.663-1.851
	c0.451-0.434,1.076-0.649,1.875-0.649h0.181v0.871h-0.181c-1.051,0-1.575,0.496-1.575,1.483v0.146h1.771v0.871h-1.771v6.244H127.704
	L127.704,53.725z"/>
<path fill="#C8252C" d="M142.064,50.51h-6.438c0.025,0.668,0.313,1.246,0.857,1.73c0.547,0.486,1.154,0.729,1.82,0.729
	c0.539,0,1.047-0.141,1.523-0.422c0.477-0.283,0.818-0.662,1.027-1.139h1.002c-0.252,0.721-0.703,1.314-1.354,1.783
	c-0.649,0.467-1.353,0.701-2.108,0.701c-1.039,0-1.922-0.359-2.646-1.08c-0.723-0.72-1.086-1.601-1.086-2.642
	c0-1.03,0.359-1.91,1.081-2.635c0.72-0.724,1.596-1.086,2.628-1.086c1.163,0,2.115,0.461,2.861,1.379
	C141.764,48.473,142.04,49.365,142.064,50.51z M135.627,49.639h5.479c-0.123-0.633-0.442-1.168-0.963-1.604
	c-0.521-0.438-1.106-0.658-1.759-0.658c-0.675,0-1.276,0.215-1.801,0.646C136.059,48.451,135.736,48.988,135.627,49.639z"/>
<path fill="#C8252C" d="M146.463,51.631h0.963c-0.018,0.363,0.102,0.678,0.358,0.941c0.256,0.264,0.565,0.396,0.931,0.396
	c0.346,0,0.643-0.11,0.885-0.332c0.242-0.221,0.363-0.504,0.363-0.852c0-0.644-0.46-1.097-1.378-1.365
	c-0.601-0.174-1.03-0.381-1.288-0.625c-0.383-0.354-0.572-0.808-0.572-1.354c0-0.571,0.198-1.047,0.598-1.424
	c0.398-0.377,0.886-0.565,1.457-0.565c0.529,0,0.988,0.192,1.38,0.571c0.391,0.383,0.586,0.832,0.586,1.354h-0.963
	c0-0.303-0.104-0.547-0.313-0.729c-0.205-0.182-0.472-0.272-0.792-0.272c-0.271,0-0.502,0.097-0.696,0.287
	c-0.194,0.188-0.293,0.424-0.293,0.7c0,0.347,0.131,0.617,0.391,0.808c0.156,0.121,0.441,0.248,0.859,0.379
	c0.642,0.197,1.104,0.429,1.391,0.688c0.4,0.339,0.6,0.804,0.6,1.394c0,0.666-0.216,1.211-0.648,1.631
	c-0.436,0.421-0.986,0.632-1.652,0.632c-0.607,0-1.129-0.226-1.563-0.677C146.627,52.766,146.43,52.236,146.463,51.631z"/>
<path fill="#C8252C" d="M156.545,53.725V47.48h-1.482v-0.871h1.482v-2.5h0.964v2.5h1.652v0.871h-1.652v6.244H156.545L156.545,53.725
	z"/>
<path fill="#C8252C" d="M168.787,46.609h1.029l-4.112,9.613h-1.015l1.119-2.722l-2.732-6.894h1.025l2.279,5.672L168.787,46.609z"/>
<path fill="#C8252C" d="M174.395,53.725v-9.615h0.963v9.615H174.395z"/>
<path fill="#C8252C" d="M187.768,50.51h-6.438c0.026,0.668,0.313,1.246,0.858,1.73c0.547,0.486,1.154,0.729,1.821,0.729
	c0.537,0,1.044-0.141,1.522-0.422c0.477-0.283,0.818-0.662,1.027-1.139h1.002c-0.252,0.721-0.703,1.314-1.354,1.783
	c-0.649,0.467-1.354,0.701-2.106,0.701c-1.041,0-1.924-0.359-2.648-1.08c-0.725-0.72-1.086-1.601-1.086-2.642
	c0-1.03,0.359-1.91,1.08-2.635c0.721-0.724,1.597-1.086,2.629-1.086c1.162,0,2.115,0.461,2.861,1.379
	C187.463,48.473,187.743,49.365,187.768,50.51z M181.328,49.639h5.479c-0.121-0.633-0.441-1.168-0.964-1.604
	c-0.521-0.438-1.104-0.658-1.756-0.658c-0.676,0-1.276,0.215-1.803,0.646C181.762,48.449,181.439,48.988,181.328,49.639z"/>
<polygon fill="#00ACE4" points="98.341,4.508 98.341,35.74 115.128,35.74 115.128,32.178 102.244,32.178 102.244,20.366 
	114.744,20.366 114.744,16.806 102.244,16.806 102.244,8.068 115.128,8.068 115.128,8.052 113.714,4.508 "/>
<path fill="#77AD43" d="M193.523,35.795h-3.688V4.566h3.688V35.795z"/>
<polygon fill="#77AD43" points="195.426,4.566 195.426,8.126 202.85,8.126 202.85,35.795 206.732,35.795 206.732,8.126 
	215.48,8.126 213.42,4.566 "/>
<polygon fill="#77AD43" points="235.531,4.566 227.863,17.896 220.2,4.566 217.712,4.566 215.729,4.566 217.786,8.126 
	225.924,22.205 225.924,35.795 229.807,35.795 229.807,22.205 240,4.566 "/>
<g>
	<path fill="#00ACE4" d="M128.686,26.866l8.842-23.036l8.82,23.036l8.737-22.369h4.228l-12.965,32.462l-8.82-22.896l-8.842,22.896
		L115.72,4.497h4.23L128.686,26.866z"/>
</g>
<path fill="#77AD43" d="M187.814,10.87c-1.133-1.012-2.424-1.776-3.865-2.296c-1.444-0.519-2.906-0.775-4.389-0.775
	c-1.172,0-2.289,0.153-3.349,0.463c-1.058,0.312-2.046,0.744-2.964,1.305c-0.916,0.56-1.747,1.232-2.486,2.013
	c-0.742,0.782-1.377,1.647-1.902,2.599c-0.526,0.952-0.932,1.967-1.213,3.046c-0.283,1.08-0.424,2.189-0.424,3.337
	c0,1.132,0.141,2.233,0.424,3.307c0.281,1.07,0.686,2.076,1.205,3.013c0.517,0.937,1.146,1.796,1.89,2.579
	c0.743,0.781,1.563,1.453,2.469,2.012c0.901,0.562,1.886,0.994,2.942,1.307c1.06,0.312,2.168,0.464,3.326,0.464
	c1.553,0,3.035-0.277,4.451-0.839c1.416-0.559,2.709-1.358,3.885-2.397v4.595c-1.215,0.715-2.543,1.26-3.986,1.639
	c-1.444,0.377-2.854,0.566-4.229,0.566c-1.483,0-2.914-0.189-4.297-0.566c-1.385-0.379-2.68-0.912-3.885-1.609
	c-1.208-0.695-2.305-1.529-3.297-2.498c-0.99-0.971-1.844-2.053-2.559-3.244c-0.715-1.194-1.269-2.484-1.66-3.865
	c-0.389-1.382-0.586-2.83-0.586-4.338c0-1.54,0.199-3.013,0.6-4.43c0.395-1.418,0.952-2.73,1.666-3.946
	c0.714-1.212,1.579-2.318,2.592-3.318c1.01-0.996,2.133-1.845,3.366-2.547c1.233-0.701,2.558-1.242,3.976-1.629
	c1.416-0.382,2.893-0.575,4.43-0.575c1.375,0,2.734,0.168,4.076,0.505c1.34,0.335,2.604,0.867,3.793,1.597V10.87L187.814,10.87z"/>
<g>
	<path fill="#00ACE4" d="M69.107,3l23.444,24.577V4.498h3.904v32.504L73.011,12.448v23.28h-3.903L69.107,3L69.107,3z"/>
</g>
<polygon fill="#929497" points="57.321,3.808 57.321,38.563 59.481,31.063 59.481,11.794 "/>
<path fill="#BBBDBF" d="M42.912,37.264l0.106,0.002c0.031,0,0.062,0,0.092,0c0.586,0.014,1.198,0.039,1.806,0.076l0.353,0.029
	c0.353,0.027,0.717,0.057,1.085,0.098c1.229,0.123,2.483,0.309,3.724,0.551V3.338L43.179,7.13l-3.185,4.772V37.32
	c0.741-0.041,1.488-0.063,2.236-0.063C42.458,37.258,42.685,37.26,42.912,37.264z"/>
<path fill="#BBBDBF" d="M13.807,33.363c1.574,0.443,3.06,1.213,4.412,2.281c1.95,1.541,3.488,3.582,4.57,6.063
	c0.025,0.06,0.048,0.108,0.071,0.16c0.037,0.082,0.071,0.164,0.105,0.245c0.498-0.268,1.009-0.528,1.528-0.782
	c0.121-0.058,0.233-0.11,0.347-0.166c0.233-0.113,0.473-0.229,0.721-0.342c1.199-0.537,2.472-1.035,3.782-1.472
	c0.418-0.145,0.869-0.287,1.41-0.447c0.497-0.146,0.999-0.28,1.5-0.407V25.884l-20.098,3.172v3.958
	c0.374,0.053,0.744,0.122,1.108,0.209C13.461,33.27,13.638,33.314,13.807,33.363z"/>
<path fill="#BBBDBF" d="M37.89,37.486c0.092-0.01,0.184-0.021,0.276-0.029c0.395-0.039,0.789-0.07,1.188-0.1V15.002l-3.549,0.919
	l-2.913,4.156v18.267c1.521-0.359,3.05-0.631,4.569-0.811C37.604,37.518,37.746,37.5,37.89,37.486z"/>
<path fill="#BBBDBF" d="M2.291,35.369c0.41-0.293,0.835-0.561,1.264-0.797c1.993-1.125,4.207-1.695,6.577-1.695h0.019
	c0.048,0,0.096,0.002,0.145,0.004c0.012,0.002,0.023,0.002,0.037,0.002c0.397,0.002,0.79,0.021,1.183,0.057v-13.49l-3.833-3.675
	H0.208v21.517C0.801,36.58,1.497,35.938,2.291,35.369z"/>
<path fill="#929497" d="M54.912,39.268c0.65,0.213,1.229,0.414,1.771,0.613V3.054h-5.966v35.094
	c0.185,0.039,0.368,0.076,0.553,0.115C52.474,38.539,53.696,38.877,54.912,39.268z"/>
<path fill="#77AD43" d="M60.015,50.623c-0.605-0.588-1.234-1.15-1.884-1.682c-0.195-0.154-0.392-0.308-0.586-0.459
	c-0.699-0.537-1.42-1.039-2.16-1.506c-0.277-0.179-0.554-0.343-0.833-0.511c-0.357-0.207-0.718-0.407-1.084-0.602
	c-0.036-0.021-0.077-0.039-0.113-0.06c-0.962-0.502-1.95-0.953-2.96-1.35c-0.155-0.059-0.309-0.119-0.461-0.176
	c-1.476-0.547-3.002-0.975-4.558-1.291c-0.337-0.064-0.672-0.127-1.014-0.182c-0.927-0.152-1.864-0.267-2.807-0.334
	c-0.273-0.021-0.545-0.027-0.82-0.043c-0.937-0.041-1.875-0.043-2.819,0.004c-4.135,0.198-8.317,1.241-12.287,3.223
	c14.585-4.953,27.206-0.402,34.199,9.221l1.564-2.82C60.952,51.563,60.486,51.086,60.015,50.623z"/>
<path fill="#77AD43" d="M56.688,45.422v-4.678c-0.671-0.254-1.347-0.486-2.022-0.709c-1.179-0.379-2.368-0.711-3.565-0.984
	c-0.353-0.076-0.706-0.146-1.059-0.219c-1.257-0.248-2.516-0.438-3.774-0.563c-0.472-0.052-0.938-0.084-1.402-0.121
	c-0.593-0.039-1.189-0.064-1.78-0.078c-0.061-0.002-0.125,0.002-0.185-0.002c-1.557-0.023-3.108,0.039-4.646,0.19
	c-0.234,0.023-0.468,0.048-0.698,0.074c-2.224,0.263-4.425,0.717-6.574,1.344c-0.464,0.138-0.925,0.281-1.386,0.439
	c-1.256,0.42-2.497,0.899-3.709,1.444c-0.352,0.156-0.696,0.33-1.043,0.496c-1.184,0.574-2.346,1.205-3.477,1.906
	c-4.955,3.055-9.344,7.277-12.783,12.609C22.662,40.4,41.152,37.779,56.688,45.422z"/>
<path fill="#77AD43" d="M53.458,50.947c-0.114-0.121-0.224-0.236-0.339-0.35c-0.406-0.412-0.824-0.804-1.263-1.177
	c-0.16-0.137-0.326-0.271-0.492-0.399c-0.789-0.631-1.631-1.189-2.512-1.683c-0.093-0.055-0.19-0.106-0.281-0.157
	c-0.907-0.484-1.855-0.904-2.834-1.248c-0.211-0.074-0.425-0.148-0.643-0.211c-0.58-0.185-1.18-0.343-1.787-0.472
	c-0.174-0.039-0.348-0.069-0.52-0.104c-0.606-0.11-1.212-0.196-1.828-0.25c-2.698-0.25-5.503,0.045-8.25,0.97
	c9.891-1.886,17.653,2.211,21.31,9.075l1.267-1.682c-0.241-0.361-0.499-0.715-0.763-1.057
	C54.186,51.768,53.832,51.348,53.458,50.947z"/>
<path fill="#77AD43" d="M13.085,35.627c0.167,0.02,0.334,0.045,0.5,0.076c0.261,0.045,0.519,0.098,0.782,0.164
	c1.836,0.496,3.437,1.367,4.797,2.617c0.954,0.867,1.896,2.063,2.831,3.58c0.079,0.129,0.158,0.254,0.237,0.389
	c-0.056-0.145-0.125-0.281-0.185-0.422c-1.027-2.355-2.468-4.281-4.331-5.754c-1.28-1.012-2.659-1.723-4.137-2.142
	c-0.167-0.047-0.333-0.092-0.501-0.131c-0.884-0.207-1.801-0.313-2.749-0.315c-0.061,0-0.121-0.008-0.182-0.008
	c-2.244-0.005-4.315,0.526-6.204,1.594c-0.418,0.231-0.813,0.481-1.185,0.748C1.615,36.844,0.69,37.82,0,38.957l2.646,1.744
	c0.042-0.068,0.085-0.137,0.129-0.201c1.161-1.826,2.775-3.184,4.842-4.074c0.946-0.408,1.899-0.672,2.864-0.799
	C11.34,35.514,12.208,35.514,13.085,35.627z"/>
</svg>
