<svg version="1.1"  xmlns="http://www.w3.org/2000/svg"  x="0px" y="0px"	 width="180px" height="180px" viewBox="0 0 180 180" >
<style type="text/css">
<![CDATA[
	.st0{fill:#BBBDBF;}
	.st1{fill:#929497;}
	.st2{fill:#C6242B;}
	.st3{fill:#00ACE4;}
	.st4{fill:#77AD43;}
]]>
</style>
<polygon class="st1" points="111.245,43.706 111.245,69.832 112.872,64.193 112.872,49.709 "/>
<path class="st2" d="M49.579,126.889v-5.309h0.68v0.767h0.019c0.402-0.59,0.945-0.881,1.631-0.881c0.778,0,1.403,0.291,1.883,0.881
	c0.323,0.401,0.486,0.983,0.486,1.747v2.795h-0.719v-2.795c0-0.548-0.104-0.972-0.31-1.261c-0.323-0.453-0.781-0.679-1.369-0.679
	c-0.549,0-0.984,0.218-1.301,0.649c-0.188,0.26-0.282,0.688-0.282,1.29v2.795H49.579L49.579,126.889z"/>
<path class="st2" d="M63.208,124.492h-4.806c0.019,0.498,0.233,0.929,0.64,1.293c0.408,0.36,0.861,0.542,1.359,0.542
	c0.403,0,0.781-0.106,1.137-0.315c0.357-0.21,0.612-0.493,0.766-0.849h0.748c-0.188,0.537-0.523,0.98-1.009,1.33
	c-0.486,0.348-1.01,0.523-1.574,0.523c-0.776,0-1.435-0.268-1.976-0.807c-0.54-0.536-0.81-1.193-0.81-1.971
	c0-0.77,0.268-1.423,0.806-1.966c0.537-0.539,1.19-0.808,1.96-0.808c0.869,0,1.581,0.343,2.136,1.027
	C62.981,122.973,63.188,123.638,63.208,124.492z M58.402,123.844h4.086c-0.092-0.475-0.33-0.874-0.717-1.2
	c-0.389-0.325-0.827-0.489-1.311-0.489c-0.504,0-0.952,0.159-1.344,0.48C58.725,122.953,58.487,123.358,58.402,123.844z"/>
<path class="st2" d="M68.053,126.889l-2.011-5.309h0.756l1.67,4.445l1.232-3.794h0.593l1.223,3.794l1.7-4.445h0.757l-2.021,5.309
	h-0.824l-1.136-3.521l-1.116,3.521H68.053z"/>
<path class="st2" d="M82.119,126.889v-7.171h0.716v7.171H82.119z"/>
<path class="st2" d="M86.448,126.889v-5.309h0.718v5.309H86.448z M86.496,120.942v-0.778h0.642v0.778H86.496z"/>
<path class="st2" d="M91.146,126.889v-4.657h-0.824v-0.649h0.824c-0.023-0.589,0.141-1.047,0.496-1.376
	c0.335-0.325,0.803-0.484,1.398-0.484h0.137v0.648H93.04c-0.785,0-1.175,0.368-1.175,1.106v0.106h1.319v0.65h-1.319v4.655H91.146
	L91.146,126.889z"/>
<path class="st2" d="M101.533,124.492h-4.804c0.018,0.498,0.233,0.929,0.642,1.293c0.406,0.36,0.859,0.542,1.358,0.542
	c0.4,0,0.781-0.106,1.137-0.315c0.357-0.21,0.612-0.493,0.766-0.849h0.749c-0.188,0.537-0.523,0.98-1.01,1.33
	c-0.486,0.348-1.01,0.523-1.572,0.523c-0.777,0-1.437-0.268-1.977-0.807c-0.54-0.536-0.81-1.193-0.81-1.971
	c0-0.77,0.268-1.423,0.807-1.966c0.535-0.539,1.189-0.808,1.959-0.808c0.868,0,1.581,0.343,2.137,1.027
	C101.309,122.973,101.515,123.638,101.533,124.492z M96.729,123.844h4.086c-0.091-0.475-0.33-0.874-0.718-1.2
	c-0.389-0.325-0.827-0.489-1.311-0.489c-0.504,0-0.952,0.159-1.345,0.48C97.052,122.953,96.813,123.358,96.729,123.844z"/>
<path class="st2" d="M104.487,125.328h0.718c-0.014,0.27,0.075,0.506,0.267,0.702c0.19,0.198,0.423,0.296,0.696,0.296
	c0.258,0,0.477-0.083,0.659-0.247c0.181-0.166,0.271-0.377,0.271-0.636c0-0.479-0.343-0.817-1.028-1.019
	c-0.445-0.13-0.769-0.284-0.959-0.466c-0.288-0.265-0.428-0.601-0.428-1.008c0-0.428,0.146-0.783,0.445-1.064
	s0.661-0.421,1.089-0.421c0.394,0,0.736,0.143,1.028,0.425c0.292,0.285,0.437,0.621,0.437,1.009h-0.717
	c0-0.225-0.078-0.406-0.234-0.543c-0.155-0.136-0.353-0.202-0.592-0.202c-0.2,0-0.375,0.07-0.521,0.213s-0.219,0.317-0.219,0.523
	c0,0.26,0.098,0.457,0.291,0.601c0.117,0.092,0.33,0.186,0.642,0.282c0.479,0.148,0.826,0.32,1.039,0.515
	c0.297,0.252,0.446,0.597,0.446,1.039c0,0.498-0.163,0.902-0.485,1.217c-0.325,0.314-0.735,0.473-1.234,0.473
	c-0.452,0-0.841-0.169-1.165-0.508C104.61,126.175,104.46,125.78,104.487,125.328z"/>
<path class="st2" d="M111.681,126.889v-4.657h-1.108v-0.649h1.108v-1.862h0.719v1.862h1.232v0.649h-1.232v4.657H111.681z"/>
<path class="st2" d="M120.482,121.581h0.769l-3.065,7.172h-0.757l0.832-2.028l-2.039-5.144h0.766l1.701,4.231L120.482,121.581z"/>
<path class="st2" d="M124.339,126.889v-7.171h0.718v7.171H124.339z"/>
<path class="st2" d="M133.495,124.492h-4.805c0.018,0.498,0.232,0.929,0.639,1.293c0.408,0.36,0.861,0.542,1.359,0.542
	c0.401,0,0.78-0.106,1.137-0.315c0.356-0.21,0.612-0.493,0.767-0.849h0.747c-0.188,0.537-0.523,0.98-1.008,1.33
	c-0.485,0.348-1.012,0.523-1.573,0.523c-0.777,0-1.437-0.268-1.976-0.807c-0.54-0.536-0.81-1.193-0.81-1.971
	c0-0.77,0.268-1.423,0.806-1.966c0.536-0.539,1.189-0.808,1.96-0.808c0.869,0,1.581,0.343,2.137,1.027
	C133.268,122.973,133.475,123.638,133.495,124.492z M128.69,123.844h4.086c-0.091-0.475-0.33-0.874-0.718-1.2
	c-0.39-0.325-0.825-0.489-1.313-0.489c-0.504,0-0.952,0.159-1.343,0.48C129.011,122.953,128.772,123.358,128.69,123.844z"/>
<path class="st0" d="M100.413,68.856h0.078c0.023,0,0.045,0,0.072,0c0.441,0.009,0.897,0.027,1.354,0.058l0.267,0.021
	c0.263,0.022,0.544,0.043,0.815,0.075c0.925,0.092,1.871,0.232,2.802,0.412v-26.07l-5.191,2.85l-2.394,3.587v19.104
	c0.559-0.026,1.119-0.042,1.681-0.042C100.074,68.851,100.241,68.853,100.413,68.856"/>
<path class="st0" d="M78.523,65.921c1.186,0.333,2.303,0.914,3.318,1.716c1.467,1.159,2.62,2.69,3.438,4.558
	c0.024,0.046,0.036,0.083,0.055,0.123c0.025,0.063,0.053,0.125,0.077,0.186c0.374-0.2,0.764-0.396,1.146-0.589
	c0.096-0.044,0.178-0.083,0.261-0.125c0.178-0.086,0.362-0.174,0.547-0.257c0.899-0.403,1.862-0.776,2.843-1.104
	c0.316-0.112,0.659-0.217,1.059-0.339c0.375-0.107,0.754-0.212,1.126-0.304v-9.486l-15.112,2.387v2.976
	c0.279,0.041,0.563,0.09,0.839,0.154C78.263,65.849,78.394,65.885,78.523,65.921"/>
<path class="st0" d="M96.635,69.022c0.066-0.009,0.143-0.014,0.213-0.023c0.297-0.027,0.595-0.053,0.891-0.072v-16.81l-2.667,0.693
	l-2.195,3.125v13.731c1.142-0.27,2.294-0.476,3.44-0.61C96.423,69.044,96.53,69.03,96.635,69.022"/>
<path class="st0" d="M69.863,67.429c0.307-0.219,0.629-0.423,0.952-0.598c1.498-0.846,3.161-1.273,4.945-1.273h0.014
	c0.04,0,0.074,0,0.11,0c0.007,0.001,0.021,0.001,0.027,0.001c0.299,0.001,0.593,0.016,0.893,0.042v-10.14l-2.884-2.759h-5.623v16.17
	C68.747,68.341,69.27,67.859,69.863,67.429"/>
<path class="st1" d="M109.438,70.361c0.486,0.158,0.923,0.31,1.328,0.459V43.139h-4.481v26.38c0.131,0.03,0.274,0.057,0.412,0.087
	C107.6,69.812,108.522,70.063,109.438,70.361"/>
<path class="st4" d="M113.279,78.896c-0.46-0.442-0.93-0.866-1.42-1.265c-0.151-0.115-0.296-0.229-0.442-0.345
	c-0.526-0.401-1.069-0.781-1.623-1.131c-0.205-0.134-0.42-0.257-0.625-0.382c-0.271-0.158-0.538-0.309-0.815-0.451
	c-0.029-0.016-0.059-0.031-0.092-0.046c-0.722-0.377-1.459-0.714-2.221-1.012c-0.117-0.046-0.229-0.09-0.344-0.133
	c-1.109-0.409-2.256-0.735-3.432-0.974c-0.248-0.048-0.504-0.095-0.76-0.134c-0.696-0.115-1.403-0.2-2.109-0.25
	c-0.209-0.02-0.415-0.024-0.619-0.034c-0.705-0.033-1.408-0.035-2.121,0.003c-3.11,0.148-6.253,0.933-9.238,2.419
	c10.969-3.72,20.46-0.298,25.716,6.934l1.181-2.123C113.978,79.606,113.63,79.243,113.279,78.896"/>
<path class="st4" d="M110.773,74.986V71.47c-0.508-0.191-1.014-0.369-1.521-0.532c-0.885-0.289-1.784-0.532-2.678-0.74
	c-0.268-0.057-0.534-0.111-0.795-0.167c-0.951-0.187-1.899-0.329-2.843-0.42c-0.356-0.042-0.7-0.065-1.057-0.095
	c-0.442-0.031-0.895-0.048-1.338-0.056c-0.047-0.002-0.091,0-0.139-0.002c-1.169-0.02-2.335,0.025-3.492,0.141
	c-0.177,0.021-0.354,0.037-0.523,0.059c-1.678,0.196-3.334,0.54-4.95,1.011c-0.346,0.103-0.692,0.212-1.034,0.331
	c-0.945,0.314-1.882,0.674-2.792,1.085c-0.268,0.118-0.524,0.248-0.788,0.373c-0.892,0.432-1.764,0.907-2.617,1.434
	c-3.719,2.296-7.02,5.47-9.607,9.478C85.184,71.209,99.093,69.242,110.773,74.986"/>
<path class="st4" d="M108.344,79.141c-0.083-0.091-0.167-0.175-0.256-0.265c-0.303-0.308-0.62-0.603-0.948-0.88
	c-0.117-0.106-0.247-0.204-0.375-0.304c-0.59-0.472-1.225-0.891-1.883-1.263c-0.074-0.039-0.143-0.075-0.21-0.117
	c-0.688-0.366-1.398-0.68-2.133-0.941c-0.165-0.057-0.32-0.107-0.482-0.158c-0.438-0.138-0.89-0.257-1.349-0.354
	c-0.126-0.03-0.257-0.051-0.389-0.081c-0.456-0.083-0.911-0.146-1.376-0.186c-2.026-0.19-4.137,0.036-6.206,0.729
	c7.441-1.417,13.277,1.662,16.027,6.825l0.955-1.267c-0.185-0.272-0.376-0.535-0.577-0.793
	C108.894,79.757,108.626,79.44,108.344,79.141"/>
<path class="st4" d="M77.984,67.623c0.123,0.016,0.254,0.034,0.375,0.052c0.195,0.042,0.394,0.078,0.59,0.128
	c1.38,0.373,2.584,1.027,3.604,1.968c0.721,0.65,1.427,1.55,2.129,2.692c0.063,0.095,0.121,0.191,0.176,0.29
	c-0.044-0.107-0.088-0.21-0.138-0.314c-0.771-1.772-1.855-3.22-3.255-4.326c-0.96-0.763-2.004-1.297-3.109-1.609
	c-0.127-0.037-0.252-0.07-0.38-0.101c-0.667-0.154-1.353-0.234-2.066-0.234c-0.044,0-0.089-0.01-0.138-0.01
	c-1.685,0-3.245,0.398-4.663,1.2c-0.317,0.174-0.614,0.364-0.893,0.561c-0.86,0.618-1.562,1.35-2.071,2.204l1.989,1.312
	c0.026-0.051,0.063-0.103,0.093-0.153c0.873-1.371,2.087-2.392,3.644-3.06c0.713-0.31,1.429-0.504,2.152-0.6
	C76.672,67.538,77.323,67.538,77.984,67.623"/>
<polygon class="st3" points="48.938,89.876 48.938,113.352 61.546,113.352 61.546,110.678 51.866,110.678 51.866,101.796 
	61.263,101.796 61.263,99.122 51.866,99.122 51.866,92.552 61.546,92.552 61.546,92.541 60.486,89.876 "/>
<rect x="117.68" y="89.922" class="st4" width="2.778" height="23.476"/>
<polygon class="st4" points="121.884,89.922 121.884,92.598 127.463,92.598 127.463,113.398 130.38,113.398 130.38,92.598 
	136.95,92.598 135.398,89.922 "/>
<polygon class="st4" points="152.017,89.922 146.259,99.941 140.497,89.922 138.628,89.922 137.136,89.922 138.683,92.598 
	144.795,103.184 144.795,113.398 147.714,113.398 147.714,103.184 155.377,89.922 "/>
<polygon class="st3" points="71.756,106.671 78.394,89.354 85.023,106.671 91.591,89.855 94.762,89.855 85.023,114.262 
	78.394,97.047 71.756,114.262 62.01,89.855 65.188,89.855 "/>
<path class="st4" d="M116.166,94.657c-0.851-0.759-1.818-1.336-2.906-1.726c-1.086-0.391-2.185-0.583-3.3-0.583
	c-0.879,0-1.721,0.115-2.509,0.349c-0.802,0.234-1.544,0.558-2.229,0.98c-0.693,0.422-1.314,0.924-1.876,1.515
	c-0.552,0.585-1.029,1.235-1.429,1.95c-0.396,0.715-0.696,1.477-0.908,2.291c-0.216,0.809-0.32,1.643-0.32,2.507
	c0,0.854,0.104,1.681,0.32,2.485c0.212,0.804,0.513,1.561,0.902,2.267c0.39,0.702,0.864,1.353,1.42,1.937
	c0.561,0.591,1.179,1.096,1.858,1.516c0.676,0.423,1.419,0.747,2.212,0.983c0.791,0.23,1.627,0.346,2.497,0.346
	c1.169,0,2.279-0.207,3.344-0.629c1.069-0.424,2.038-1.022,2.921-1.805v3.452c-0.913,0.541-1.912,0.948-2.997,1.234
	c-1.089,0.284-2.145,0.425-3.178,0.425c-1.114,0-2.188-0.139-3.229-0.425c-1.039-0.286-2.016-0.688-2.919-1.211
	c-0.907-0.522-1.729-1.146-2.476-1.878c-0.745-0.729-1.387-1.542-1.921-2.44c-0.537-0.897-0.957-1.866-1.252-2.903
	c-0.289-1.042-0.436-2.129-0.436-3.262c0-1.158,0.148-2.263,0.448-3.332c0.293-1.064,0.717-2.055,1.255-2.965
	c0.535-0.911,1.184-1.744,1.948-2.493c0.757-0.749,1.604-1.388,2.529-1.92c0.926-0.526,1.918-0.931,2.983-1.225
	c1.067-0.286,2.173-0.428,3.33-0.428c1.036,0,2.054,0.123,3.061,0.377c1.006,0.255,1.964,0.649,2.854,1.2v3.405h-0.004v0.006
	H116.166z"/>
<polygon class="st3" points="26.926,88.768 44.542,107.242 44.542,89.891 47.482,89.891 47.482,114.324 29.857,95.866 
	29.857,113.367 26.926,113.367 "/>
</svg>
